<svg width="96" height="85" viewBox="0 0 96 85" fill="none" xmlns="http://www.w3.org/2000/svg">
<path d="M0.429508 0.414001C-0.188085 1.05582 -0.139646 1.64919 0.574824 2.35155L1.10765 2.89648H5.78198C8.8094 2.89648 10.4442 2.94492 10.4442 3.01758C10.4442 3.09024 10.8075 3.13868 11.2919 3.13868C11.7763 3.13868 12.1396 3.18711 12.1396 3.25977C12.1396 3.32032 12.2485 3.38087 12.3818 3.38087C12.515 3.38087 12.6239 3.42931 12.6239 3.50197C12.6239 3.56252 12.7087 3.62306 12.8056 3.62306C13.0478 3.62306 14.0771 4.65238 14.0771 4.89458C14.0771 4.99146 14.1377 5.07623 14.1982 5.07623C14.2709 5.07623 14.3193 5.18521 14.3193 5.31841C14.3193 5.45162 14.3798 5.56061 14.4404 5.56061C14.5131 5.56061 14.5615 5.66959 14.5615 5.8028C14.5615 5.936 14.622 6.045 14.6826 6.045C14.7552 6.045 14.8037 6.20242 14.8037 6.40829C14.8037 6.60204 14.8642 6.77158 14.9248 6.77158C14.9974 6.77158 15.0459 7.03799 15.0459 7.37706C15.0459 7.70402 15.1064 7.98254 15.167 7.98254C15.2396 7.98254 15.2881 8.3095 15.2881 8.70912C15.2881 9.10874 15.3365 9.4357 15.4092 9.4357C15.4818 9.4357 15.5303 9.65367 15.5303 9.92009C15.5303 10.1865 15.5908 10.4045 15.6514 10.4045C15.724 10.4045 15.7725 10.6709 15.7725 11.01C15.7725 11.3369 15.833 11.6154 15.8936 11.6154C15.9662 11.6154 16.0147 11.8819 16.0147 12.2209C16.0147 12.5479 16.0752 12.8264 16.1357 12.8264C16.2084 12.8264 16.2568 13.1897 16.2568 13.6741C16.2568 14.1585 16.3053 14.5218 16.3779 14.5218C16.4506 14.5218 16.499 14.7397 16.499 15.0061C16.499 15.2726 16.5596 15.4905 16.6201 15.4905C16.6928 15.4905 16.7412 15.7569 16.7412 16.096C16.7412 16.423 16.8018 16.7015 16.8623 16.7015C16.935 16.7015 16.9834 16.9679 16.9834 17.307C16.9834 17.6339 17.044 17.9125 17.1045 17.9125C17.1772 17.9125 17.2256 18.1304 17.2256 18.3969C17.2256 18.6633 17.2862 18.8812 17.3467 18.8812C17.4194 18.8812 17.4678 19.0992 17.4678 19.3656C17.4678 19.632 17.5284 19.85 17.5889 19.85C17.6616 19.85 17.71 20.068 17.71 20.3344C17.71 20.6008 17.7706 20.8188 17.8311 20.8188C17.9038 20.8188 17.9522 21.0852 17.9522 21.4243C17.9522 21.7512 18.0127 22.0298 18.0733 22.0298C18.146 22.0298 18.1944 22.2477 18.1944 22.5141C18.1944 22.7805 18.2549 22.9985 18.3155 22.9985C18.3881 22.9985 18.4366 23.3255 18.4366 23.7251C18.4366 24.1247 18.485 24.4517 18.5577 24.4517C18.6303 24.4517 18.6788 24.6697 18.6788 24.9361C18.6788 25.2025 18.7393 25.4205 18.7999 25.4205C18.8725 25.4205 18.921 25.6384 18.921 25.9048C18.921 26.1713 18.9815 26.3892 19.0421 26.3892C19.1147 26.3892 19.1632 26.6556 19.1632 26.9947C19.1632 27.3217 19.2237 27.6002 19.2843 27.6002C19.3569 27.6002 19.4054 27.8182 19.4054 28.0846C19.4054 28.351 19.4659 28.569 19.5265 28.569C19.5991 28.569 19.6476 28.7869 19.6476 29.0534C19.6476 29.3198 19.7081 29.5377 19.7686 29.5377C19.8413 29.5377 19.8897 29.6952 19.8897 29.901C19.8897 30.0948 19.9503 30.2643 20.0108 30.2643C20.0835 30.2643 20.1319 30.5307 20.1319 30.8698C20.1319 31.1968 20.1925 31.4753 20.253 31.4753C20.3257 31.4753 20.3741 31.7417 20.3741 32.0808C20.3741 32.4077 20.4347 32.6863 20.4952 32.6863C20.5679 32.6863 20.6163 32.9527 20.6163 33.2917C20.6163 33.6187 20.6769 33.8972 20.7374 33.8972C20.8101 33.8972 20.8585 34.1636 20.8585 34.5027C20.8585 34.8297 20.9191 35.1082 20.9796 35.1082C21.0523 35.1082 21.1007 35.3262 21.1007 35.5926C21.1007 35.859 21.1613 36.077 21.2218 36.077C21.2945 36.077 21.3429 36.3434 21.3429 36.6824C21.3429 37.0094 21.4035 37.2879 21.464 37.2879C21.5367 37.2879 21.5851 37.5059 21.5851 37.7723C21.5851 38.0387 21.6456 38.2567 21.7062 38.2567C21.7789 38.2567 21.8273 38.4747 21.8273 38.7411C21.8273 39.0075 21.8878 39.2255 21.9484 39.2255C22.021 39.2255 22.0695 39.4919 22.0695 39.831C22.0695 40.1579 22.13 40.4364 22.1906 40.4364C22.2632 40.4364 22.3117 40.7029 22.3117 41.0419C22.3117 41.3689 22.3722 41.6474 22.4328 41.6474C22.5054 41.6474 22.5539 41.9138 22.5539 42.2529C22.5539 42.5798 22.6144 42.8584 22.675 42.8584C22.7476 42.8584 22.7961 43.1248 22.7961 43.4639C22.7961 43.7908 22.8566 44.0693 22.9172 44.0693C22.9898 44.0693 23.0383 44.3358 23.0383 44.6748C23.0383 45.0018 23.0988 45.2803 23.1594 45.2803C23.232 45.2803 23.2805 45.5467 23.2805 45.8858C23.2805 46.2127 23.341 46.4913 23.4015 46.4913C23.4742 46.4913 23.5226 46.7092 23.5226 46.9757C23.5226 47.2421 23.5832 47.46 23.6437 47.46C23.7164 47.46 23.7648 47.7265 23.7648 48.0655C23.7648 48.3925 23.8254 48.671 23.8859 48.671C23.9586 48.671 24.007 48.9374 24.007 49.2765C24.007 49.6035 24.0676 49.882 24.1281 49.882C24.2008 49.882 24.2492 50.1484 24.2492 50.4875C24.2492 50.8144 24.3098 51.0929 24.3703 51.0929C24.443 51.0929 24.4914 51.3594 24.4914 51.6984C24.4914 52.0254 24.552 52.3039 24.6125 52.3039C24.6852 52.3039 24.7336 52.5703 24.7336 52.9094C24.7336 53.2364 24.7942 53.5149 24.8547 53.5149C24.9274 53.5149 24.9758 53.8418 24.9758 54.2415C24.9758 54.6411 25.0242 54.968 25.0969 54.968C25.1696 54.968 25.218 55.3313 25.218 55.8157C25.218 56.3001 25.2664 56.6634 25.3391 56.6634C25.4118 56.6634 25.4602 56.8814 25.4602 57.1478C25.4602 57.4142 25.5207 57.6322 25.5813 57.6322C25.6539 57.6322 25.7024 57.8501 25.7024 58.1165C25.7024 58.383 25.7629 58.6009 25.8235 58.6009C25.8961 58.6009 25.9446 58.8189 25.9446 59.0853C25.9446 59.3517 26.0051 59.5697 26.0657 59.5697C26.1383 59.5697 26.1868 59.7271 26.1868 59.933C26.1868 60.1268 26.2473 60.2963 26.3079 60.2963C26.3805 60.2963 26.429 60.4053 26.429 60.5385C26.429 60.6717 26.4895 60.7807 26.5501 60.7807C26.6227 60.7807 26.6712 60.8897 26.6712 61.0229C26.6712 61.1561 26.7317 61.2651 26.7923 61.2651C26.8649 61.2651 26.9134 61.374 26.9134 61.5073C26.9134 61.6405 26.9739 61.7494 27.0344 61.7494C27.1071 61.7494 27.1555 61.8342 27.1555 61.9311C27.1555 62.1491 28.8993 63.9292 29.1052 63.9292C29.1779 63.9292 29.3958 64.0866 29.5775 64.2925C29.7591 64.4862 30.0013 64.6558 30.1103 64.6558C30.2193 64.6558 30.3041 64.7042 30.3041 64.7769C30.3041 64.8374 30.413 64.898 30.5463 64.898C30.6795 64.898 30.7884 64.9464 30.7884 65.0191C30.7884 65.0796 30.8974 65.1402 31.0306 65.1402C31.1638 65.1402 31.2728 65.1886 31.2728 65.2612C31.2728 65.3218 31.4424 65.3823 31.6361 65.3823C31.842 65.3823 31.9994 65.4308 31.9994 65.5034C31.9994 65.564 32.1689 65.6245 32.3627 65.6245C32.5686 65.6245 32.726 65.673 32.726 65.7456C32.726 65.8062 32.835 65.8667 32.9682 65.8667C33.1256 65.8667 33.2104 65.9515 33.2104 66.1089C33.2104 66.2664 33.1256 66.3511 32.9682 66.3511C32.835 66.3511 32.726 66.3996 32.726 66.4722C32.726 66.5328 32.508 66.5933 32.2416 66.5933C31.9752 66.5933 31.7572 66.6418 31.7572 66.7144C31.7572 66.775 31.6482 66.8355 31.515 66.8355C31.3818 66.8355 31.2728 66.8839 31.2728 66.9566C31.2728 67.0172 31.1154 67.0777 30.9095 67.0777C30.7158 67.0777 30.5463 67.1261 30.5463 67.1988C30.5463 67.2593 30.4373 67.3199 30.3041 67.3199C30.1709 67.3199 30.0619 67.3683 30.0619 67.441C30.0619 67.5015 29.965 67.5621 29.8439 67.5621C29.7228 67.5621 29.5533 67.6711 29.4564 67.8043C29.3595 67.9375 29.2142 68.0465 29.1294 68.0465C28.9236 68.0465 27.1555 69.8145 27.1555 70.0203C27.1555 70.1051 27.0466 70.2504 26.9134 70.3473C26.7801 70.4442 26.6712 70.6137 26.6712 70.7348C26.6712 70.8559 26.6227 70.9528 26.5501 70.9528C26.4895 70.9528 26.429 71.0618 26.429 71.195C26.429 71.3282 26.3805 71.4372 26.3079 71.4372C26.2473 71.4372 26.1868 71.5462 26.1868 71.6794C26.1868 71.8126 26.1383 71.9216 26.0657 71.9216C26.0051 71.9216 25.9446 72.079 25.9446 72.2849C25.9446 72.4786 25.8961 72.6481 25.8235 72.6481C25.7629 72.6481 25.7024 72.8056 25.7024 73.0114C25.7024 73.2052 25.6539 73.3747 25.5813 73.3747C25.5086 73.3747 25.4602 73.738 25.4602 74.2224C25.4602 74.7068 25.4118 75.0701 25.3391 75.0701C25.2664 75.0701 25.218 75.397 25.218 75.7967C25.218 76.1963 25.2664 76.5232 25.3391 76.5232C25.4118 76.5232 25.4602 76.8865 25.4602 77.3709C25.4602 77.8553 25.5086 78.2186 25.5813 78.2186C25.6539 78.2186 25.7024 78.376 25.7024 78.5819C25.7024 78.7756 25.7629 78.9452 25.8235 78.9452C25.8961 78.9452 25.9446 79.1026 25.9446 79.3085C25.9446 79.5022 26.0051 79.6717 26.0657 79.6717C26.1383 79.6717 26.1868 79.7807 26.1868 79.9139C26.1868 80.0471 26.2473 80.1561 26.3079 80.1561C26.3805 80.1561 26.429 80.253 26.429 80.3741C26.429 80.4952 26.538 80.6647 26.6712 80.7616C26.8044 80.8585 26.9134 81.0038 26.9134 81.0886C26.9134 81.2944 29.1658 83.5468 29.3716 83.5468C29.4564 83.5468 29.6017 83.6558 29.6986 83.789C29.7955 83.9343 30.0134 84.0312 30.2072 84.0312C30.3888 84.0312 30.5463 84.0797 30.5463 84.1523C30.5463 84.2129 30.6552 84.2734 30.7884 84.2734C30.9217 84.2734 31.0306 84.3219 31.0306 84.3945C31.0306 84.4551 31.2002 84.5156 31.3939 84.5156C31.5998 84.5156 31.7572 84.5641 31.7572 84.6367C31.7572 84.6973 31.9752 84.7578 32.2416 84.7578C32.508 84.7578 32.726 84.8062 32.726 84.8789C32.726 84.9516 33.4889 85 34.7846 85C36.0804 85 36.8433 84.9516 36.8433 84.8789C36.8433 84.8062 37.0128 84.7578 37.2066 84.7578C37.4124 84.7578 37.5699 84.6973 37.5699 84.6367C37.5699 84.5641 37.7394 84.5156 37.9332 84.5156C38.139 84.5156 38.2964 84.4551 38.2964 84.3945C38.2964 84.3219 38.4054 84.2734 38.5386 84.2734C38.6718 84.2734 38.7808 84.2129 38.7808 84.1523C38.7808 84.0797 38.8898 84.0312 39.023 84.0312C39.1562 84.0312 39.2652 83.9707 39.2652 83.9101C39.2652 83.8375 39.3621 83.789 39.4832 83.789C39.6043 83.789 39.7738 83.68 39.8707 83.5468C39.9676 83.4136 40.1129 83.3046 40.1977 83.3046C40.3914 83.3046 41.6871 82.0331 41.6871 81.8394C41.6871 81.7667 41.8446 81.5487 42.0504 81.3671C42.2442 81.1855 42.4137 80.9433 42.4137 80.8343C42.4137 80.7253 42.4743 80.6405 42.5348 80.6405C42.6075 80.6405 42.6559 80.5436 42.6559 80.4225C42.6559 80.3015 42.7649 80.1319 42.8981 80.035C43.0313 79.9382 43.1403 79.7686 43.1403 79.6475C43.1403 79.5264 43.2009 79.4296 43.2614 79.4296C43.3341 79.4296 43.3825 79.26 43.3825 79.0663C43.3825 78.8604 43.4431 78.703 43.5036 78.703C43.5763 78.703 43.6247 78.5334 43.6247 78.3397C43.6247 78.1338 43.6852 77.9764 43.7458 77.9764C43.8185 77.9764 43.8669 77.7584 43.8669 77.492C43.8669 77.2256 43.9274 77.0076 43.988 77.0076C44.0606 77.0076 44.1091 76.4021 44.1091 75.4334C44.1091 74.4646 44.0606 73.8591 43.988 73.8591C43.9274 73.8591 43.8669 73.6411 43.8669 73.3747C43.8669 73.1083 43.8185 72.8903 43.7458 72.8903C43.6852 72.8903 43.6247 72.7208 43.6247 72.527C43.6247 72.3212 43.5763 72.1638 43.5036 72.1638C43.4431 72.1638 43.3825 71.9942 43.3825 71.8005C43.3825 71.5946 43.3341 71.4372 43.2614 71.4372C43.2009 71.4372 43.1403 71.3282 43.1403 71.195C43.1403 71.0618 43.0919 70.9528 43.0192 70.9528C42.9587 70.9528 42.8981 70.8559 42.8981 70.7348C42.8981 70.6137 42.7891 70.4442 42.6559 70.3473C42.5227 70.2504 42.4137 70.1051 42.4137 70.0203C42.4137 69.7903 40.6457 68.0465 40.4156 68.0465C40.3188 68.0465 40.234 67.9859 40.234 67.9254C40.234 67.8527 40.125 67.8043 39.9918 67.8043C39.8586 67.8043 39.7496 67.7437 39.7496 67.6832C39.7496 67.6105 39.6406 67.5621 39.5074 67.5621C39.3742 67.5621 39.2652 67.5015 39.2652 67.441C39.2652 67.3683 39.1562 67.3199 39.023 67.3199C38.8898 67.3199 38.7808 67.2593 38.7808 67.1988C38.7808 67.1261 38.6718 67.0777 38.5386 67.0777C38.4054 67.0777 38.2964 67.0172 38.2964 66.9566C38.2964 66.8839 38.139 66.8355 37.9332 66.8355C37.7394 66.8355 37.5699 66.775 37.5699 66.7144C37.5699 66.6418 37.4609 66.5933 37.3277 66.5933C37.1945 66.5933 37.0855 66.5328 37.0855 66.4722C37.0855 66.3874 42.6922 66.3511 53.6636 66.3511C66.7542 66.3511 70.2539 66.3148 70.2902 66.2058C70.3265 66.0968 70.3992 66.1089 70.5445 66.2542C70.8109 66.5207 70.7988 66.5933 70.5082 66.5933C70.375 66.5933 70.266 66.6418 70.266 66.7144C70.266 66.775 70.157 66.8355 70.0238 66.8355C69.8906 66.8355 69.7816 66.8839 69.7816 66.9566C69.7816 67.0172 69.6242 67.0777 69.4183 67.0777C69.2245 67.0777 69.055 67.1261 69.055 67.1988C69.055 67.2593 68.8976 67.3199 68.6917 67.3199C68.498 67.3199 68.3284 67.3683 68.3284 67.441C68.3284 67.5015 68.2315 67.5621 68.1104 67.5621C67.9893 67.5621 67.8198 67.6711 67.7229 67.8043C67.6261 67.9375 67.4807 68.0465 67.396 68.0465C67.2022 68.0465 66.1487 69.0758 66.1487 69.2695C66.1487 69.3422 65.9791 69.5602 65.7854 69.7418C65.5795 69.9235 65.4221 70.1657 65.4221 70.2746C65.4221 70.3836 65.3737 70.4684 65.301 70.4684C65.2405 70.4684 65.1799 70.5774 65.1799 70.7106C65.1799 70.8438 65.1315 70.9528 65.0588 70.9528C64.9983 70.9528 64.9377 71.0618 64.9377 71.195C64.9377 71.3282 64.8893 71.4372 64.8166 71.4372C64.7561 71.4372 64.6955 71.5462 64.6955 71.6794C64.6955 71.8126 64.6471 71.9216 64.5744 71.9216C64.5139 71.9216 64.4533 72.0306 64.4533 72.1638C64.4533 72.297 64.4049 72.406 64.3322 72.406C64.2717 72.406 64.2111 72.5634 64.2111 72.7692C64.2111 72.963 64.1627 73.1325 64.09 73.1325C64.0295 73.1325 63.9689 73.3505 63.9689 73.6169C63.9689 73.8833 63.9205 74.1013 63.8478 74.1013C63.7752 74.1013 63.7267 74.6705 63.7267 75.5545C63.7267 76.4385 63.7752 77.0076 63.8478 77.0076C63.9205 77.0076 63.9689 77.274 63.9689 77.6131C63.9689 77.9401 64.0295 78.2186 64.09 78.2186C64.1627 78.2186 64.2111 78.376 64.2111 78.5819C64.2111 78.7756 64.2717 78.9452 64.3322 78.9452C64.4049 78.9452 64.4533 79.1026 64.4533 79.3085C64.4533 79.5022 64.5139 79.6717 64.5744 79.6717C64.6471 79.6717 64.6955 79.7807 64.6955 79.9139C64.6955 80.0471 64.7561 80.1561 64.8166 80.1561C64.8893 80.1561 64.9377 80.2651 64.9377 80.3983C64.9377 80.5315 64.9983 80.6405 65.0588 80.6405C65.1315 80.6405 65.1799 80.7253 65.1799 80.8343C65.1799 80.9433 65.3373 81.1855 65.5432 81.3671C65.7369 81.5487 65.9065 81.7667 65.9065 81.8394C65.9065 82.021 66.4635 82.5781 66.6331 82.5781C66.7178 82.5781 66.9842 82.796 67.2385 83.0625C67.4929 83.3289 67.7835 83.5468 67.8682 83.5468C67.953 83.5468 68.1104 83.6558 68.2073 83.789C68.3042 83.9222 68.4737 84.0312 68.5948 84.0312C68.7159 84.0312 68.8128 84.0797 68.8128 84.1523C68.8128 84.2129 68.9823 84.2734 69.1761 84.2734C69.382 84.2734 69.5394 84.3219 69.5394 84.3945C69.5394 84.4551 69.7089 84.5156 69.9027 84.5156C70.1085 84.5156 70.266 84.5641 70.266 84.6367C70.266 84.6973 70.4839 84.7578 70.7504 84.7578C71.0168 84.7578 71.2347 84.8062 71.2347 84.8789C71.2347 84.9516 71.925 85 73.0512 85C74.1774 85 74.8676 84.9516 74.8676 84.8789C74.8676 84.8062 75.1462 84.7578 75.4731 84.7578C75.8122 84.7578 76.0786 84.6973 76.0786 84.6367C76.0786 84.5641 76.2481 84.5156 76.4419 84.5156C76.6478 84.5156 76.8052 84.4551 76.8052 84.3945C76.8052 84.3219 76.9142 84.2734 77.0474 84.2734C77.1806 84.2734 77.2896 84.2129 77.2896 84.1523C77.2896 84.0797 77.3986 84.0312 77.5318 84.0312C77.665 84.0312 77.774 83.9707 77.774 83.9101C77.774 83.8375 77.8708 83.789 77.9919 83.789C78.113 83.789 78.2826 83.68 78.3794 83.5468C78.4763 83.4136 78.6216 83.3046 78.7064 83.3046C78.9002 83.3046 80.1959 82.0331 80.1959 81.8394C80.1959 81.7667 80.4139 81.5003 80.6803 81.246C80.9467 80.9917 81.1647 80.689 81.1647 80.5921C81.1647 80.4831 81.2252 80.3983 81.2858 80.3983C81.3584 80.3983 81.4069 80.2893 81.4069 80.1561C81.4069 80.0229 81.4674 79.9139 81.528 79.9139C81.6006 79.9139 81.6491 79.805 81.6491 79.6717C81.6491 79.5385 81.7096 79.4296 81.7701 79.4296C81.8428 79.4296 81.8912 79.26 81.8912 79.0663C81.8912 78.8604 81.9518 78.703 82.0123 78.703C82.085 78.703 82.1334 78.5334 82.1334 78.3397C82.1334 78.1338 82.194 77.9764 82.2545 77.9764C82.3272 77.9764 82.3756 77.6494 82.3756 77.2498C82.3756 76.8502 82.4241 76.5232 82.4967 76.5232C82.5694 76.5232 82.6178 76.0388 82.6178 75.3123C82.6178 74.5857 82.5694 74.1013 82.4967 74.1013C82.4362 74.1013 82.3756 73.8228 82.3756 73.4958C82.3756 73.1567 82.3272 72.8903 82.2545 72.8903C82.194 72.8903 82.1334 72.7208 82.1334 72.527C82.1334 72.3212 82.085 72.1638 82.0123 72.1638C81.9518 72.1638 81.8912 72.0548 81.8912 71.9216C81.8912 71.7884 81.8428 71.6794 81.7701 71.6794C81.7096 71.6794 81.6491 71.5704 81.6491 71.4372C81.6491 71.304 81.6006 71.195 81.528 71.195C81.4674 71.195 81.4069 71.0981 81.4069 70.977C81.4069 70.8559 81.2979 70.6864 81.1647 70.5895C81.0315 70.4926 80.9225 70.3473 80.9225 70.2625C80.9225 70.0325 78.9123 68.0465 78.6822 68.0465C78.5853 68.0465 78.5005 67.9859 78.5005 67.9254C78.5005 67.8527 78.3915 67.8043 78.2583 67.8043C78.1251 67.8043 78.0162 67.7437 78.0162 67.6832C78.0162 67.6105 77.9193 67.5621 77.7982 67.5621C77.6771 67.5621 77.5075 67.4531 77.4107 67.3199C77.3138 67.1746 77.0958 67.0777 76.9021 67.0777C76.7204 67.0777 76.563 67.0172 76.563 66.9566C76.563 66.8839 76.345 66.8355 76.0786 66.8355C75.8122 66.8355 75.5942 66.775 75.5942 66.7144C75.5942 66.6418 75.4852 66.5933 75.352 66.5933C75.1946 66.5933 75.1098 66.5085 75.1098 66.3511C75.1098 66.1331 75.1946 66.1089 75.9575 66.1089C76.4419 66.1089 76.8052 66.1574 76.8052 66.23C76.8052 66.3027 77.6286 66.3511 79.0455 66.3511H81.2979L81.7096 65.9273C82.5694 65.0796 82.0608 63.2026 80.983 63.2026C80.8135 63.2026 80.6803 63.251 80.6803 63.3237C80.6803 63.3964 80.1959 63.4448 79.4693 63.4448C78.7427 63.4448 78.2583 63.3964 78.2583 63.3237C78.2583 63.251 77.6165 63.2026 76.563 63.2026C75.5095 63.2026 74.8676 63.251 74.8676 63.3237C74.8676 63.4085 69.8179 63.4448 59.9727 63.4448C50.1276 63.4448 45.0779 63.4085 45.0779 63.3237C45.0779 63.1542 44.6298 63.1784 44.545 63.3479C44.4845 63.469 44.4603 63.469 44.3997 63.3479C44.3149 63.1542 43.661 63.1542 43.5763 63.3479C43.5157 63.469 43.4915 63.469 43.4309 63.3479C43.3462 63.1784 42.4137 63.1421 42.4137 63.3237C42.4137 63.3964 41.1664 63.4448 38.9019 63.4448C36.6374 63.4448 35.3901 63.3964 35.3901 63.3237C35.3901 63.1421 34.6999 63.1784 34.6151 63.3479C34.5546 63.469 34.5303 63.469 34.4698 63.3479C34.4335 63.2753 34.1913 63.2026 33.9249 63.2026C33.6705 63.2026 33.4526 63.1421 33.4526 63.0815C33.4526 63.0089 33.2951 62.9604 33.0893 62.9604C32.8955 62.9604 32.726 62.8999 32.726 62.8393C32.726 62.7667 32.617 62.7182 32.4838 62.7182C32.3506 62.7182 32.2416 62.6577 32.2416 62.5971C32.2416 62.5245 32.1326 62.476 31.9994 62.476C31.8662 62.476 31.7572 62.4155 31.7572 62.3549C31.7572 62.2823 31.6725 62.2338 31.5756 62.2338C31.3455 62.2338 29.8197 60.7322 29.8197 60.5022C29.8197 60.4174 29.7107 60.2721 29.5775 60.1752C29.4443 60.0783 29.3353 59.9088 29.3353 59.7877C29.3353 59.6666 29.2868 59.5697 29.2142 59.5697C29.1536 59.5697 29.0931 59.4607 29.0931 59.3275C29.0931 59.1943 29.0447 59.0853 28.972 59.0853C28.9114 59.0853 28.8509 58.9763 28.8509 58.8431C28.8509 58.7099 28.8025 58.6009 28.7298 58.6009C28.6693 58.6009 28.6087 58.383 28.6087 58.1165C28.6087 57.8501 28.5603 57.6322 28.4876 57.6322C28.4271 57.6322 28.3665 57.4142 28.3665 57.1478C28.3665 56.8814 28.3181 56.6634 28.2454 56.6634C28.1849 56.6634 28.1243 56.3849 28.1243 56.0579C28.1243 55.7188 28.0759 55.4524 28.0032 55.4524C27.9306 55.4524 27.8821 55.1255 27.8821 54.7258C27.8821 54.3262 27.8337 53.9993 27.761 53.9993C27.7005 53.9993 27.6399 53.7813 27.6399 53.5149C27.6399 53.2485 27.5915 53.0305 27.5188 53.0305C27.4462 53.0305 27.3977 52.7035 27.3977 52.3039C27.3977 51.9043 27.3493 51.5773 27.2766 51.5773C27.2161 51.5773 27.1555 51.3594 27.1555 51.0929C27.1555 50.8265 27.1071 50.6086 27.0344 50.6086C26.9618 50.6086 26.9134 50.2816 26.9134 49.882V49.1554H28.7298C29.856 49.1554 30.5463 49.107 30.5463 49.0343C30.5463 48.9616 32.0357 48.9132 34.7846 48.9132C37.5335 48.9132 39.023 48.9616 39.023 49.0343C39.023 49.2038 39.4711 49.1796 39.5558 48.998C39.6164 48.889 39.6406 48.889 39.7012 48.998C39.7859 49.1917 42.1715 49.2159 42.1715 49.0343C42.1715 48.9616 42.5712 48.9132 43.1403 48.9132C43.7095 48.9132 44.1091 48.9616 44.1091 49.0343C44.1091 49.1191 48.0205 49.1554 55.6133 49.1554C63.206 49.1554 67.1174 49.1191 67.1174 49.0343C67.1174 48.9616 67.6382 48.9132 68.4495 48.9132C69.2609 48.9132 69.7816 48.9616 69.7816 49.0343C69.7816 49.107 70.1812 49.1554 70.7504 49.1554C71.3195 49.1554 71.7191 49.107 71.7191 49.0343C71.7191 48.9616 73.0149 48.9132 75.352 48.9132C77.6892 48.9132 78.9849 48.9616 78.9849 49.0343C78.9849 49.107 79.7115 49.1554 80.9225 49.1554C82.1334 49.1554 82.86 49.107 82.86 49.0343C82.86 48.9616 83.4534 48.9132 84.3858 48.9132C85.9601 48.9132 86.2507 48.8284 86.2507 48.3804C86.2507 48.2714 86.3113 48.1866 86.3718 48.1866C86.4445 48.1866 86.4929 48.0776 86.4929 47.9444C86.4929 47.8112 86.5535 47.7022 86.614 47.7022C86.6867 47.7022 86.7351 47.4237 86.7351 47.0968C86.7351 46.7577 86.7957 46.4913 86.8562 46.4913C86.9289 46.4913 86.9773 46.1643 86.9773 45.7647C86.9773 45.3651 87.0257 45.0381 87.0984 45.0381C87.1711 45.0381 87.2195 44.8686 87.2195 44.6748C87.2195 44.469 87.28 44.3115 87.3406 44.3115C87.4133 44.3115 87.4617 44.0936 87.4617 43.8271C87.4617 43.5607 87.5222 43.3428 87.5828 43.3428C87.6554 43.3428 87.7039 43.1732 87.7039 42.9795C87.7039 42.7736 87.7644 42.6162 87.825 42.6162C87.8976 42.6162 87.9461 42.3982 87.9461 42.1318C87.9461 41.8654 88.0066 41.6474 88.0672 41.6474C88.1398 41.6474 88.1883 41.4294 88.1883 41.163C88.1883 40.8966 88.2488 40.6786 88.3094 40.6786C88.382 40.6786 88.4305 40.4607 88.4305 40.1942C88.4305 39.9278 88.491 39.7099 88.5516 39.7099C88.6242 39.7099 88.6727 39.4919 88.6727 39.2255C88.6727 38.9591 88.7332 38.7411 88.7938 38.7411C88.8664 38.7411 88.9149 38.5231 88.9149 38.2567C88.9149 37.9903 88.9754 37.7723 89.0359 37.7723C89.1086 37.7723 89.157 37.5543 89.157 37.2879C89.157 37.0215 89.2176 36.8035 89.2781 36.8035C89.3508 36.8035 89.3992 36.634 89.3992 36.4403C89.3992 36.2344 89.4598 36.077 89.5203 36.077C89.593 36.077 89.6414 35.859 89.6414 35.5926C89.6414 35.3262 89.702 35.1082 89.7625 35.1082C89.8352 35.1082 89.8836 34.8902 89.8836 34.6238C89.8836 34.3574 89.9442 34.1394 90.0047 34.1394C90.0774 34.1394 90.1258 33.9214 90.1258 33.655C90.1258 33.3886 90.1864 33.1706 90.2469 33.1706C90.3196 33.1706 90.368 32.9527 90.368 32.6863C90.368 32.4198 90.4286 32.2019 90.4891 32.2019C90.5618 32.2019 90.6102 31.9839 90.6102 31.7175C90.6102 31.4511 90.6708 31.2331 90.7313 31.2331C90.804 31.2331 90.8524 30.9546 90.8524 30.6276C90.8524 30.2885 90.9129 30.0221 90.9735 30.0221C91.0462 30.0221 91.0946 29.8526 91.0946 29.6588C91.0946 29.453 91.1551 29.2955 91.2157 29.2955C91.2883 29.2955 91.3368 29.0776 91.3368 28.8112C91.3368 28.5448 91.3973 28.3268 91.4579 28.3268C91.5305 28.3268 91.579 28.1572 91.579 27.9635C91.579 27.7576 91.6395 27.6002 91.7001 27.6002C91.7727 27.6002 91.8212 27.3217 91.8212 26.9947C91.8212 26.6556 91.8817 26.3892 91.9423 26.3892C92.0149 26.3892 92.0634 26.1713 92.0634 25.9048C92.0634 25.6384 92.1239 25.4205 92.1845 25.4205C92.2571 25.4205 92.3056 25.2025 92.3056 24.9361C92.3056 24.6697 92.3661 24.4517 92.4267 24.4517C92.4993 24.4517 92.5478 24.2337 92.5478 23.9673C92.5478 23.7009 92.6083 23.4829 92.6689 23.4829C92.7415 23.4829 92.7899 23.2649 92.7899 22.9985C92.7899 22.7321 92.8505 22.5141 92.911 22.5141C92.9837 22.5141 93.0321 22.2962 93.0321 22.0298C93.0321 21.7633 93.0927 21.5454 93.1532 21.5454C93.2259 21.5454 93.2743 21.3758 93.2743 21.1821C93.2743 20.9762 93.3349 20.8188 93.3954 20.8188C93.4681 20.8188 93.5165 20.6008 93.5165 20.3344C93.5165 20.068 93.5771 19.85 93.6376 19.85C93.7103 19.85 93.7587 19.5715 93.7587 19.2445C93.7587 18.9055 93.8193 18.639 93.8798 18.639C93.9525 18.639 94.0009 18.4211 94.0009 18.1547C94.0009 17.8882 94.0615 17.6703 94.122 17.6703C94.1947 17.6703 94.2431 17.4523 94.2431 17.1859C94.2431 16.9195 94.3037 16.7015 94.3642 16.7015C94.4369 16.7015 94.4853 16.4835 94.4853 16.2171C94.4853 15.9507 94.5458 15.7327 94.6064 15.7327C94.6791 15.7327 94.7275 15.5148 94.7275 15.2483C94.7275 14.9819 94.788 14.764 94.8486 14.764C94.9212 14.764 94.9697 14.5944 94.9697 14.4007C94.9697 14.1948 95.0302 14.0374 95.0908 14.0374C95.1634 14.0374 95.2119 13.9284 95.2119 13.7952C95.2119 13.662 95.1634 13.553 95.0908 13.553C95.0302 13.553 94.9697 13.4682 94.9697 13.3713C94.9697 13.0202 94.4005 12.5842 93.9404 12.5842C93.7103 12.5842 93.5165 12.5237 93.5165 12.4631C93.5165 12.3783 81.0193 12.342 56.2672 12.342C24.1523 12.342 19.0057 12.3178 18.8483 12.1725C18.7514 12.0756 18.6788 11.7608 18.6788 11.4459C18.6788 11.1432 18.6303 10.8889 18.5577 10.8889C18.485 10.8889 18.4366 10.5619 18.4366 10.1623C18.4366 9.76266 18.3881 9.4357 18.3155 9.4357C18.2549 9.4357 18.1944 9.15718 18.1944 8.83022C18.1944 8.49115 18.146 8.22473 18.0733 8.22473C18.0006 8.22473 17.9522 7.89777 17.9522 7.49815C17.9522 7.09853 17.9038 6.77158 17.8311 6.77158C17.7706 6.77158 17.71 6.5536 17.71 6.28719C17.71 6.02077 17.6616 5.8028 17.5889 5.8028C17.5284 5.8028 17.4678 5.58483 17.4678 5.31841C17.4678 5.052 17.4194 4.83403 17.3467 4.83403C17.2862 4.83403 17.2256 4.72504 17.2256 4.59184C17.2256 4.45863 17.1772 4.34964 17.1045 4.34964C17.044 4.34964 16.9834 4.19221 16.9834 4.01057C16.9834 3.81682 16.8865 3.59885 16.7412 3.50197C16.608 3.40509 16.499 3.25977 16.499 3.175C16.499 2.96914 15.2154 1.68552 15.0095 1.68552C14.9248 1.68552 14.7795 1.57653 14.6826 1.44332C14.5857 1.31012 14.4162 1.20113 14.2951 1.20113C14.174 1.20113 14.0771 1.14058 14.0771 1.08003C14.0771 1.00738 13.9681 0.958939 13.8349 0.958939C13.7017 0.958939 13.5927 0.898392 13.5927 0.837837C13.5927 0.765182 13.4837 0.716743 13.3505 0.716743C13.2173 0.716743 13.1083 0.656197 13.1083 0.59565C13.1083 0.522987 12.9509 0.474548 12.745 0.474548C12.5513 0.474548 12.3818 0.414001 12.3818 0.353455C12.3818 0.280792 12.1638 0.232353 11.8974 0.232353C11.631 0.232353 11.413 0.171806 11.413 0.111259C11.413 0.0264893 9.57231 -0.00983429 6.12105 0.00227356H0.817017L0.429508 0.414001ZM54.5234 15.3694C54.5234 15.43 54.6324 15.4905 54.7656 15.4905C54.8988 15.4905 55.0078 15.43 55.0078 15.3694C55.0078 15.2847 61.0989 15.2483 73.0512 15.2483C85.0034 15.2483 91.0946 15.2847 91.0946 15.3694C91.0946 15.43 91.2036 15.4905 91.3368 15.4905C91.5426 15.4905 91.579 15.5753 91.579 15.9749C91.579 16.2413 91.5305 16.4593 91.4579 16.4593C91.3973 16.4593 91.3368 16.6773 91.3368 16.9437C91.3368 17.2101 91.2883 17.4281 91.2157 17.4281C91.1551 17.4281 91.0946 17.5855 91.0946 17.7914C91.0946 17.9851 91.0462 18.1547 90.9735 18.1547C90.9129 18.1547 90.8524 18.3726 90.8524 18.639C90.8524 18.9055 90.804 19.1234 90.7313 19.1234C90.6708 19.1234 90.6102 19.3414 90.6102 19.6078C90.6102 19.8742 90.5618 20.0922 90.4891 20.0922C90.4286 20.0922 90.368 20.3102 90.368 20.5766C90.368 20.843 90.3196 21.061 90.2469 21.061C90.1864 21.061 90.1258 21.2789 90.1258 21.5454C90.1258 21.8118 90.0774 22.0298 90.0047 22.0298C89.9442 22.0298 89.8836 22.2477 89.8836 22.5141C89.8836 22.7805 89.8352 22.9985 89.7625 22.9985C89.702 22.9985 89.6414 23.2649 89.6414 23.604C89.6414 23.931 89.593 24.2095 89.5203 24.2095C89.4598 24.2095 89.3992 24.4275 89.3992 24.6939C89.3992 24.9603 89.3508 25.1783 89.2781 25.1783C89.2176 25.1783 89.157 25.3962 89.157 25.6627C89.157 25.9291 89.1086 26.147 89.0359 26.147C88.9754 26.147 88.9149 26.365 88.9149 26.6314C88.9149 26.8978 88.8664 27.1158 88.7938 27.1158C88.7332 27.1158 88.6727 27.3338 88.6727 27.6002C88.6727 27.8666 88.6242 28.0846 88.5516 28.0846C88.491 28.0846 88.4305 28.3026 88.4305 28.569C88.4305 28.8354 88.382 29.0534 88.3094 29.0534C88.2488 29.0534 88.1883 29.2713 88.1883 29.5377C88.1883 29.8042 88.1398 30.0221 88.0672 30.0221C88.0066 30.0221 87.9461 30.2885 87.9461 30.6276C87.9461 30.9546 87.8976 31.2331 87.825 31.2331C87.7644 31.2331 87.7039 31.4511 87.7039 31.7175C87.7039 31.9839 87.6554 32.2019 87.5828 32.2019C87.5222 32.2019 87.4617 32.4198 87.4617 32.6863C87.4617 32.9527 87.4133 33.1706 87.3406 33.1706C87.28 33.1706 87.2195 33.3886 87.2195 33.655C87.2195 33.9214 87.1711 34.1394 87.0984 34.1394C87.0379 34.1394 86.9773 34.3574 86.9773 34.6238C86.9773 34.8902 86.9289 35.1082 86.8562 35.1082C86.7957 35.1082 86.7351 35.3262 86.7351 35.5926C86.7351 35.859 86.6867 36.077 86.614 36.077C86.5535 36.077 86.4929 36.2344 86.4929 36.4403C86.4929 36.634 86.4445 36.8035 86.3718 36.8035C86.3113 36.8035 86.2507 37.0215 86.2507 37.2879C86.2507 37.5543 86.2023 37.7723 86.1296 37.7723C86.0691 37.7723 86.0085 37.9903 86.0085 38.2567C86.0085 38.5231 85.9601 38.7411 85.8874 38.7411C85.8269 38.7411 85.7663 38.9591 85.7663 39.2255C85.7663 39.4919 85.7179 39.7099 85.6452 39.7099C85.5847 39.7099 85.5241 39.9278 85.5241 40.1942C85.5241 40.4607 85.4757 40.6786 85.403 40.6786C85.3425 40.6786 85.282 40.8966 85.282 41.163C85.282 41.4294 85.2335 41.6474 85.1609 41.6474C85.1003 41.6474 85.0398 41.8048 85.0398 42.0107C85.0398 42.2044 84.9913 42.374 84.9187 42.374C84.8581 42.374 84.7976 42.592 84.7976 42.8584C84.7976 43.1248 84.7491 43.3428 84.6765 43.3428C84.6159 43.3428 84.5554 43.5607 84.5554 43.8271C84.5554 44.0936 84.5069 44.3115 84.4343 44.3115C84.3737 44.3115 84.3132 44.5295 84.3132 44.7959C84.3132 45.0623 84.2647 45.2803 84.1921 45.2803C84.1315 45.2803 84.071 45.3651 84.071 45.4741C84.071 46.0311 85.6089 46.0069 55.1289 46.0069C24.0191 46.0069 26.1868 46.0553 26.1868 45.353C26.1868 45.1834 26.1383 45.0381 26.0657 45.0381C26.0051 45.0381 25.9446 44.7596 25.9446 44.4326C25.9446 44.0936 25.8961 43.8271 25.8235 43.8271C25.7629 43.8271 25.7024 43.6092 25.7024 43.3428C25.7024 43.0763 25.6539 42.8584 25.5813 42.8584C25.5207 42.8584 25.4602 42.5798 25.4602 42.2529C25.4602 41.9138 25.4118 41.6474 25.3391 41.6474C25.2785 41.6474 25.218 41.4294 25.218 41.163C25.218 40.8966 25.1696 40.6786 25.0969 40.6786C25.0364 40.6786 24.9758 40.5091 24.9758 40.3153C24.9758 40.1095 24.9274 39.9521 24.8547 39.9521C24.7942 39.9521 24.7336 39.7946 24.7336 39.6009C24.7336 39.4071 24.661 39.2134 24.5883 39.1891C24.4672 39.1407 24.4793 39.0923 24.6125 38.9833C24.7457 38.8743 24.7578 38.8259 24.6488 38.7774C24.5399 38.7411 24.4914 38.4626 24.4914 38.0024C24.4914 37.6028 24.443 37.2879 24.3703 37.2879C24.3098 37.2879 24.2492 37.07 24.2492 36.8035C24.2492 36.5371 24.2008 36.3192 24.1281 36.3192C24.0676 36.3192 24.007 36.0406 24.007 35.7137C24.007 35.3746 23.9586 35.1082 23.8859 35.1082C23.8254 35.1082 23.7648 34.8297 23.7648 34.5027C23.7648 34.1636 23.7164 33.8972 23.6437 33.8972C23.5832 33.8972 23.5226 33.6792 23.5226 33.4128C23.5226 33.1464 23.4742 32.9284 23.4015 32.9284C23.341 32.9284 23.2805 32.6499 23.2805 32.323C23.2805 31.9839 23.232 31.7175 23.1594 31.7175C23.0988 31.7175 23.0383 31.4995 23.0383 31.2331C23.0383 30.9667 22.9898 30.7487 22.9172 30.7487C22.8566 30.7487 22.7961 30.5307 22.7961 30.2643C22.7961 29.9979 22.7476 29.7799 22.675 29.7799C22.6144 29.7799 22.5539 29.5014 22.5539 29.1745C22.5539 28.8354 22.5054 28.569 22.4328 28.569C22.3722 28.569 22.3117 28.351 22.3117 28.0846C22.3117 27.8182 22.2632 27.6002 22.1906 27.6002C22.13 27.6002 22.0695 27.3217 22.0695 26.9947C22.0695 26.6556 22.021 26.3892 21.9484 26.3892C21.8878 26.3892 21.8273 26.1107 21.8273 25.7837C21.8273 25.4447 21.7789 25.1783 21.7062 25.1783C21.6456 25.1783 21.5851 24.9603 21.5851 24.6939C21.5851 24.4275 21.5367 24.2095 21.464 24.2095C21.4035 24.2095 21.3429 23.9915 21.3429 23.7251C21.3429 23.4587 21.2945 23.2407 21.2218 23.2407C21.1613 23.2407 21.1007 23.0227 21.1007 22.7563C21.1007 22.4899 21.0523 22.2719 20.9796 22.2719C20.9191 22.2719 20.8585 21.9934 20.8585 21.6665C20.8585 21.3274 20.8101 21.061 20.7374 21.061C20.6769 21.061 20.6163 20.843 20.6163 20.5766C20.6163 20.3102 20.5679 20.0922 20.4952 20.0922C20.4347 20.0922 20.3741 19.8137 20.3741 19.4867C20.3741 19.1477 20.3257 18.8812 20.253 18.8812C20.1925 18.8812 20.1319 18.6633 20.1319 18.3969C20.1319 18.1304 20.0835 17.9125 20.0108 17.9125C19.9503 17.9125 19.8897 17.6945 19.8897 17.4281C19.8897 17.1617 19.8413 16.9437 19.7686 16.9437C19.5991 16.9437 19.6233 15.6358 19.805 15.43C19.9866 15.212 54.5234 15.1515 54.5234 15.3694ZM35.6323 69.1363C35.6323 69.1969 35.8503 69.2574 36.1167 69.2574C36.3831 69.2574 36.6011 69.3059 36.6011 69.3785C36.6011 69.4391 36.7706 69.4996 36.9644 69.4996C37.1702 69.4996 37.3277 69.5481 37.3277 69.6207C37.3277 69.6813 37.4367 69.7418 37.5699 69.7418C37.7031 69.7418 37.8121 69.7903 37.8121 69.8629C37.8121 69.9235 37.9089 69.984 38.03 69.984C38.1511 69.984 38.3207 70.093 38.4175 70.2262C38.5144 70.3594 38.6597 70.4684 38.7445 70.4684C38.8414 70.4684 39.2047 70.7711 39.568 71.1344C39.9312 71.4977 40.234 71.861 40.234 71.9579C40.234 72.0427 40.343 72.188 40.4762 72.2849C40.6094 72.3817 40.7184 72.5513 40.7184 72.6724C40.7184 72.7935 40.7789 72.8903 40.8395 72.8903C40.9121 72.8903 40.9606 73.0478 40.9606 73.2536C40.9606 73.4474 41.0211 73.6169 41.0817 73.6169C41.1543 73.6169 41.2028 74.3072 41.2028 75.4334C41.2028 76.5596 41.1543 77.2498 41.0817 77.2498C41.0211 77.2498 40.9606 77.4072 40.9606 77.6131C40.9606 77.8069 40.9121 77.9764 40.8395 77.9764C40.7789 77.9764 40.7184 78.0854 40.7184 78.2186C40.7184 78.3518 40.6699 78.4608 40.5973 78.4608C40.5367 78.4608 40.4762 78.5577 40.4762 78.6788C40.4762 78.7999 40.3672 78.9694 40.234 79.0663C40.1008 79.1631 39.9918 79.3085 39.9918 79.3932C39.9918 79.5991 38.466 81.1249 38.2601 81.1249C38.1753 81.1249 38.03 81.2339 37.9332 81.3671C37.8363 81.5124 37.6183 81.6093 37.4245 81.6093C37.2429 81.6093 37.0855 81.6577 37.0855 81.7304C37.0855 81.7909 36.928 81.8515 36.7222 81.8515C36.5284 81.8515 36.3589 81.8999 36.3589 81.9726C36.3589 82.0452 35.7534 82.0937 34.7846 82.0937C33.8159 82.0937 33.2104 82.0452 33.2104 81.9726C33.2104 81.8999 33.053 81.8515 32.8471 81.8515C32.6533 81.8515 32.4838 81.7909 32.4838 81.7304C32.4838 81.6577 32.3264 81.6093 32.1205 81.6093C31.9268 81.6093 31.7572 81.5487 31.7572 81.4882C31.7572 81.4155 31.6603 81.3671 31.5392 81.3671C31.4181 81.3671 31.2486 81.2581 31.1517 81.1249C31.0549 80.9917 30.9095 80.8827 30.8127 80.8827C30.6189 80.8827 30.0619 80.3378 30.0619 80.144C30.0619 80.0714 29.9044 79.8534 29.6986 79.6717C29.5048 79.4901 29.3353 79.26 29.3353 79.1631C29.3353 79.0784 29.2263 78.9209 29.0931 78.8241C28.9599 78.7272 28.8509 78.5577 28.8509 78.4366C28.8509 78.3155 28.8025 78.2186 28.7298 78.2186C28.6693 78.2186 28.6087 78.0006 28.6087 77.7342C28.6087 77.4678 28.5603 77.2498 28.4876 77.2498C28.415 77.2498 28.3665 76.935 28.3665 76.5353C28.3665 76.0752 28.306 75.7967 28.2212 75.7482C28.1001 75.6877 28.1001 75.6634 28.2212 75.6029C28.306 75.5545 28.3665 75.2759 28.3665 74.8158C28.3665 74.4162 28.415 74.1013 28.4876 74.1013C28.5603 74.1013 28.6087 73.8833 28.6087 73.6169C28.6087 73.3505 28.6693 73.1325 28.7298 73.1325C28.8025 73.1325 28.8509 73.0235 28.8509 72.8903C28.8509 72.7571 28.9114 72.6481 28.972 72.6481C29.0447 72.6481 29.0931 72.5513 29.0931 72.4302C29.0931 72.3091 29.2021 72.1395 29.3353 72.0427C29.4685 71.9458 29.5775 71.8005 29.5775 71.7157C29.5775 71.6188 29.8197 71.304 30.1224 71.0133C30.413 70.7106 30.7279 70.4684 30.8248 70.4684C30.9095 70.4684 31.0549 70.3594 31.1517 70.2262C31.2486 70.093 31.4181 69.984 31.5392 69.984C31.6603 69.984 31.7572 69.9235 31.7572 69.8629C31.7572 69.7903 31.8662 69.7418 31.9994 69.7418C32.1326 69.7418 32.2416 69.6813 32.2416 69.6207C32.2416 69.5481 32.4111 69.4996 32.6049 69.4996C32.8108 69.4996 32.9682 69.4391 32.9682 69.3785C32.9682 69.3059 33.2467 69.2574 33.5737 69.2574C33.9127 69.2574 34.1792 69.1969 34.1792 69.1363C34.1792 69.0637 34.5061 69.0152 34.9057 69.0152C35.3054 69.0152 35.6323 69.0637 35.6323 69.1363ZM74.8676 69.3785C74.8676 69.4391 75.0372 69.4996 75.2309 69.4996C75.4368 69.4996 75.5942 69.5481 75.5942 69.6207C75.5942 69.6813 75.7032 69.7418 75.8364 69.7418C75.9696 69.7418 76.0786 69.7903 76.0786 69.8629C76.0786 69.9235 76.1876 69.984 76.3208 69.984C76.454 69.984 76.563 70.0325 76.563 70.1051C76.563 70.1657 76.6599 70.2262 76.781 70.2262C76.9021 70.2262 77.0716 70.3352 77.1685 70.4684C77.2654 70.6016 77.4107 70.7106 77.5075 70.7106C77.7134 70.7106 78.2583 71.2555 78.2583 71.4614C78.2583 71.5583 78.3673 71.7036 78.5005 71.8005C78.6337 71.8973 78.7427 72.0669 78.7427 72.188C78.7427 72.3091 78.8033 72.406 78.8638 72.406C78.9365 72.406 78.9849 72.5149 78.9849 72.6481C78.9849 72.7814 79.0455 72.8903 79.106 72.8903C79.1787 72.8903 79.2271 72.9993 79.2271 73.1325C79.2271 73.2657 79.2877 73.3747 79.3482 73.3747C79.4209 73.3747 79.4693 73.5927 79.4693 73.8591C79.4693 74.1255 79.5299 74.3435 79.5904 74.3435C79.6631 74.3435 79.7115 74.7916 79.7115 75.4334C79.7115 76.0752 79.6631 76.5232 79.5904 76.5232C79.5299 76.5232 79.4693 76.7896 79.4693 77.1287C79.4693 77.4557 79.4209 77.7342 79.3482 77.7342C79.2877 77.7342 79.2271 77.8432 79.2271 77.9764C79.2271 78.1096 79.1787 78.2186 79.106 78.2186C79.0455 78.2186 78.9849 78.3639 78.9849 78.5334C78.9849 78.7272 78.8396 78.9815 78.6216 79.1874C78.4279 79.369 78.2583 79.587 78.2583 79.6596C78.2583 79.8534 76.9626 81.1249 76.7689 81.1249C76.6841 81.1249 76.5388 81.2339 76.4419 81.3671C76.345 81.5124 76.127 81.6093 75.9333 81.6093C75.7516 81.6093 75.5942 81.6577 75.5942 81.7304C75.5942 81.7909 75.4368 81.8515 75.2309 81.8515C75.0372 81.8515 74.8676 81.8999 74.8676 81.9726C74.8676 82.0452 74.2258 82.0937 73.1723 82.0937C72.1187 82.0937 71.4769 82.0452 71.4769 81.9726C71.4769 81.8999 71.3195 81.8515 71.1136 81.8515C70.9199 81.8515 70.7504 81.7909 70.7504 81.7304C70.7504 81.6577 70.6414 81.6093 70.5082 81.6093C70.375 81.6093 70.266 81.5487 70.266 81.4882C70.266 81.4155 70.1691 81.3671 70.048 81.3671C69.9269 81.3671 69.7574 81.2581 69.6605 81.1249C69.5636 80.9917 69.4183 80.8827 69.3335 80.8827C69.1277 80.8827 68.0862 79.8413 68.0862 79.6354C68.0862 79.5507 67.9772 79.4053 67.844 79.3085C67.7108 79.2116 67.6018 79.042 67.6018 78.9209C67.6018 78.7999 67.5534 78.703 67.4807 78.703C67.4202 78.703 67.3596 78.594 67.3596 78.4608C67.3596 78.3276 67.3112 78.2186 67.2385 78.2186C67.178 78.2186 67.1174 78.0491 67.1174 77.8553C67.1174 77.6494 67.069 77.492 66.9964 77.492C66.9358 77.492 66.8753 77.2135 66.8753 76.8865C66.8753 76.5475 66.8268 76.281 66.7542 76.281C66.6936 76.281 66.6331 76.0025 66.6331 75.6756C66.6331 75.3365 66.6936 75.0701 66.7542 75.0701C66.8268 75.0701 66.8753 74.7916 66.8753 74.4646C66.8753 74.1255 66.9358 73.8591 66.9964 73.8591C67.069 73.8591 67.1174 73.6896 67.1174 73.4958C67.1174 73.29 67.178 73.1325 67.2385 73.1325C67.3112 73.1325 67.3596 73.0235 67.3596 72.8903C67.3596 72.7571 67.4202 72.6481 67.4807 72.6481C67.5534 72.6481 67.6018 72.5634 67.6018 72.4544C67.6018 72.3454 67.7714 72.1032 67.9651 71.9216C68.171 71.7399 68.3284 71.5219 68.3284 71.4493C68.3284 71.2555 69.1277 70.4684 69.3214 70.4684C69.4183 70.4684 69.5636 70.3594 69.6605 70.2262C69.7574 70.093 69.9269 69.984 70.048 69.984C70.1691 69.984 70.266 69.9235 70.266 69.8629C70.266 69.7903 70.375 69.7418 70.5082 69.7418C70.6414 69.7418 70.7504 69.6813 70.7504 69.6207C70.7504 69.5481 70.9683 69.4996 71.2347 69.4996C71.5012 69.4996 71.7191 69.4391 71.7191 69.3785C71.7191 69.3059 72.3246 69.2574 73.2934 69.2574C74.2622 69.2574 74.8676 69.3059 74.8676 69.3785Z" fill="black"/>
</svg>
