<svg width="21" height="19" viewBox="0 0 21 19" fill="none" xmlns="http://www.w3.org/2000/svg">
<path d="M0.0947326 0.0925407C-0.0414842 0.236005 -0.0308005 0.36864 0.126784 0.525639L0.244304 0.647448H1.27528C1.94301 0.647448 2.30358 0.658275 2.30358 0.674517C2.30358 0.690758 2.38371 0.701586 2.49055 0.701586C2.59738 0.701586 2.67751 0.712414 2.67751 0.728655C2.67751 0.742189 2.70155 0.755724 2.73093 0.755724C2.76031 0.755724 2.78435 0.76655 2.78435 0.782791C2.78435 0.796325 2.80304 0.80986 2.82441 0.80986C2.87783 0.80986 3.10486 1.03994 3.10486 1.09408C3.10486 1.11574 3.11821 1.13468 3.13157 1.13468C3.14759 1.13468 3.15827 1.15905 3.15827 1.18882C3.15827 1.2186 3.17163 1.24296 3.18498 1.24296C3.20101 1.24296 3.21169 1.26732 3.21169 1.2971C3.21169 1.32687 3.22505 1.35123 3.2384 1.35123C3.25443 1.35123 3.26511 1.38642 3.26511 1.43244C3.26511 1.47575 3.27847 1.51365 3.29182 1.51365C3.30785 1.51365 3.31853 1.5732 3.31853 1.64899C3.31853 1.72207 3.33188 1.78433 3.34524 1.78433C3.36126 1.78433 3.37195 1.85742 3.37195 1.94674C3.37195 2.03607 3.38263 2.10916 3.39866 2.10916C3.41468 2.10916 3.42537 2.15788 3.42537 2.21743C3.42537 2.27698 3.43872 2.3257 3.45208 2.3257C3.4681 2.3257 3.47878 2.38526 3.47878 2.46105C3.47878 2.53413 3.49214 2.59639 3.50549 2.59639C3.52152 2.59639 3.5322 2.65594 3.5322 2.73174C3.5322 2.80482 3.54556 2.86708 3.55891 2.86708C3.57494 2.86708 3.58562 2.94828 3.58562 3.05656C3.58562 3.16483 3.5963 3.24604 3.61233 3.24604C3.62836 3.24604 3.63904 3.29476 3.63904 3.35431C3.63904 3.41387 3.65239 3.46259 3.66575 3.46259C3.68177 3.46259 3.69246 3.52214 3.69246 3.59793C3.69246 3.67102 3.70581 3.73328 3.71917 3.73328C3.73519 3.73328 3.74588 3.79283 3.74588 3.86862C3.74588 3.9417 3.75923 4.00396 3.77259 4.00396C3.78861 4.00396 3.79929 4.05269 3.79929 4.11224C3.79929 4.17179 3.81265 4.22051 3.826 4.22051C3.84203 4.22051 3.85271 4.26923 3.85271 4.32879C3.85271 4.38834 3.86607 4.43706 3.87942 4.43706C3.89545 4.43706 3.90613 4.48578 3.90613 4.54534C3.90613 4.60489 3.91949 4.65361 3.93284 4.65361C3.94887 4.65361 3.95955 4.71316 3.95955 4.78895C3.95955 4.86204 3.9729 4.9243 3.98626 4.9243C4.00228 4.9243 4.01297 4.97302 4.01297 5.03257C4.01297 5.09212 4.02632 5.14085 4.03968 5.14085C4.0557 5.14085 4.06639 5.21393 4.06639 5.30326C4.06639 5.39258 4.07707 5.46567 4.0931 5.46567C4.10912 5.46567 4.1198 5.51439 4.1198 5.57395C4.1198 5.6335 4.13316 5.68222 4.14651 5.68222C4.16254 5.68222 4.17322 5.73094 4.17322 5.79049C4.17322 5.85005 4.18658 5.89877 4.19993 5.89877C4.21596 5.89877 4.22664 5.95832 4.22664 6.03411C4.22664 6.1072 4.24 6.16946 4.25335 6.16946C4.26938 6.16946 4.28006 6.21818 4.28006 6.27773C4.28006 6.33728 4.29341 6.386 4.30677 6.386C4.32279 6.386 4.33348 6.43473 4.33348 6.49428C4.33348 6.55383 4.34683 6.60255 4.36019 6.60255C4.37621 6.60255 4.3869 6.63774 4.3869 6.68376C4.3869 6.72707 4.40025 6.76497 4.41361 6.76497C4.42963 6.76497 4.44031 6.82452 4.44031 6.90031C4.44031 6.97339 4.45367 7.03565 4.46702 7.03565C4.48305 7.03565 4.49373 7.0952 4.49373 7.171C4.49373 7.24408 4.50709 7.30634 4.52044 7.30634C4.53647 7.30634 4.54715 7.36589 4.54715 7.44168C4.54715 7.51477 4.56051 7.57703 4.57386 7.57703C4.58989 7.57703 4.60057 7.63658 4.60057 7.71237C4.60057 7.78545 4.61392 7.84771 4.62728 7.84771C4.6433 7.84771 4.65399 7.89644 4.65399 7.95599C4.65399 8.01554 4.66734 8.06426 4.6807 8.06426C4.69672 8.06426 4.70741 8.12381 4.70741 8.1996C4.70741 8.27269 4.72076 8.33495 4.73412 8.33495C4.75014 8.33495 4.76082 8.38367 4.76082 8.44322C4.76082 8.50277 4.77418 8.5515 4.78753 8.5515C4.80356 8.5515 4.81424 8.60022 4.81424 8.65977C4.81424 8.71932 4.8276 8.76805 4.84095 8.76805C4.85698 8.76805 4.86766 8.8276 4.86766 8.90339C4.86766 8.97648 4.88102 9.03873 4.89437 9.03873C4.9104 9.03873 4.92108 9.09828 4.92108 9.17408C4.92108 9.24716 4.93443 9.30942 4.94779 9.30942C4.96381 9.30942 4.9745 9.36897 4.9745 9.44476C4.9745 9.51785 4.98785 9.58011 5.00121 9.58011C5.01723 9.58011 5.02792 9.63966 5.02792 9.71545C5.02792 9.78853 5.04127 9.85079 5.05463 9.85079C5.07065 9.85079 5.08133 9.91034 5.08133 9.98614C5.08133 10.0592 5.09469 10.1215 5.10804 10.1215C5.12407 10.1215 5.13475 10.181 5.13475 10.2568C5.13475 10.3299 5.14811 10.3922 5.16146 10.3922C5.17749 10.3922 5.18817 10.4409 5.18817 10.5004C5.18817 10.56 5.20153 10.6087 5.21488 10.6087C5.23091 10.6087 5.24159 10.6683 5.24159 10.7441C5.24159 10.8171 5.25494 10.8794 5.2683 10.8794C5.28432 10.8794 5.29501 10.939 5.29501 11.0147C5.29501 11.0878 5.30836 11.1501 5.32172 11.1501C5.33774 11.1501 5.34843 11.2096 5.34843 11.2854C5.34843 11.3585 5.36178 11.4208 5.37514 11.4208C5.39116 11.4208 5.40184 11.4803 5.40184 11.5561C5.40184 11.6292 5.4152 11.6915 5.42855 11.6915C5.44458 11.6915 5.45526 11.751 5.45526 11.8268C5.45526 11.8999 5.46862 11.9621 5.48197 11.9621C5.498 11.9621 5.50868 12.0352 5.50868 12.1246C5.50868 12.2139 5.51937 12.287 5.53539 12.287C5.55142 12.287 5.5621 12.3682 5.5621 12.4765C5.5621 12.5847 5.57278 12.6659 5.58881 12.6659C5.60483 12.6659 5.61552 12.7147 5.61552 12.7742C5.61552 12.8338 5.62887 12.8825 5.64223 12.8825C5.65825 12.8825 5.66894 12.9312 5.66894 12.9908C5.66894 13.0503 5.68229 13.099 5.69565 13.099C5.71167 13.099 5.72235 13.1478 5.72235 13.2073C5.72235 13.2669 5.73571 13.3156 5.74906 13.3156C5.76509 13.3156 5.77577 13.3508 5.77577 13.3968C5.77577 13.4401 5.78913 13.478 5.80248 13.478C5.81851 13.478 5.82919 13.5024 5.82919 13.5321C5.82919 13.5619 5.84255 13.5863 5.8559 13.5863C5.87193 13.5863 5.88261 13.6106 5.88261 13.6404C5.88261 13.6702 5.89596 13.6945 5.90932 13.6945C5.92534 13.6945 5.93603 13.7189 5.93603 13.7487C5.93603 13.7785 5.94938 13.8028 5.96274 13.8028C5.97876 13.8028 5.98945 13.8218 5.98945 13.8434C5.98945 13.8921 6.37406 14.2901 6.41946 14.2901C6.43549 14.2901 6.48357 14.3252 6.52363 14.3713C6.56369 14.4146 6.61711 14.4525 6.64115 14.4525C6.66519 14.4525 6.68389 14.4633 6.68389 14.4795C6.68389 14.4931 6.70792 14.5066 6.7373 14.5066C6.76668 14.5066 6.79072 14.5174 6.79072 14.5337C6.79072 14.5472 6.81476 14.5607 6.84414 14.5607C6.87352 14.5607 6.89756 14.5716 6.89756 14.5878C6.89756 14.6013 6.93495 14.6149 6.97769 14.6149C7.02309 14.6149 7.05781 14.6257 7.05781 14.6419C7.05781 14.6555 7.09521 14.669 7.13794 14.669C7.18335 14.669 7.21807 14.6798 7.21807 14.6961C7.21807 14.7096 7.24211 14.7232 7.27149 14.7232C7.30621 14.7232 7.3249 14.7421 7.3249 14.7773C7.3249 14.8125 7.30621 14.8314 7.27149 14.8314C7.24211 14.8314 7.21807 14.8423 7.21807 14.8585C7.21807 14.872 7.16999 14.8856 7.11123 14.8856C7.05247 14.8856 7.0044 14.8964 7.0044 14.9126C7.0044 14.9262 6.98036 14.9397 6.95098 14.9397C6.9216 14.9397 6.89756 14.9505 6.89756 14.9668C6.89756 14.9803 6.86284 14.9938 6.81743 14.9938C6.7747 14.9938 6.7373 15.0047 6.7373 15.0209C6.7373 15.0344 6.71327 15.048 6.68389 15.048C6.65451 15.048 6.63047 15.0588 6.63047 15.075C6.63047 15.0886 6.6091 15.1021 6.58239 15.1021C6.55568 15.1021 6.51829 15.1265 6.49692 15.1563C6.47555 15.186 6.4435 15.2104 6.42481 15.2104C6.3794 15.2104 5.98945 15.6056 5.98945 15.6516C5.98945 15.6706 5.96541 15.703 5.93603 15.7247C5.90665 15.7463 5.88261 15.7842 5.88261 15.8113C5.88261 15.8384 5.87193 15.86 5.8559 15.86C5.84255 15.86 5.82919 15.8844 5.82919 15.9142C5.82919 15.9439 5.81851 15.9683 5.80248 15.9683C5.78913 15.9683 5.77577 15.9927 5.77577 16.0224C5.77577 16.0522 5.76509 16.0766 5.74906 16.0766C5.73571 16.0766 5.72235 16.1118 5.72235 16.1578C5.72235 16.2011 5.71167 16.239 5.69565 16.239C5.68229 16.239 5.66894 16.2742 5.66894 16.3202C5.66894 16.3635 5.65825 16.4014 5.64223 16.4014C5.6262 16.4014 5.61552 16.4826 5.61552 16.5909C5.61552 16.6992 5.60483 16.7804 5.58881 16.7804C5.57278 16.7804 5.5621 16.8535 5.5621 16.9428C5.5621 17.0321 5.57278 17.1052 5.58881 17.1052C5.60483 17.1052 5.61552 17.1864 5.61552 17.2947C5.61552 17.4029 5.6262 17.4842 5.64223 17.4842C5.65825 17.4842 5.66894 17.5193 5.66894 17.5654C5.66894 17.6087 5.68229 17.6466 5.69565 17.6466C5.71167 17.6466 5.72235 17.6818 5.72235 17.7278C5.72235 17.7711 5.73571 17.809 5.74906 17.809C5.76509 17.809 5.77577 17.8333 5.77577 17.8631C5.77577 17.8929 5.78913 17.9173 5.80248 17.9173C5.81851 17.9173 5.82919 17.9389 5.82919 17.966C5.82919 17.993 5.85323 18.0309 5.88261 18.0526C5.91199 18.0743 5.93603 18.1067 5.93603 18.1257C5.93603 18.1717 6.43282 18.6752 6.47822 18.6752C6.49692 18.6752 6.52897 18.6995 6.55034 18.7293C6.57171 18.7618 6.61978 18.7835 6.66252 18.7835C6.70258 18.7835 6.7373 18.7943 6.7373 18.8105C6.7373 18.8241 6.76134 18.8376 6.79072 18.8376C6.8201 18.8376 6.84414 18.8484 6.84414 18.8647C6.84414 18.8782 6.88153 18.8917 6.92427 18.8917C6.96967 18.8917 7.0044 18.9026 7.0044 18.9188C7.0044 18.9323 7.05247 18.9459 7.11123 18.9459C7.16999 18.9459 7.21807 18.9567 7.21807 18.9729C7.21807 18.9892 7.38634 19 7.67212 19C7.95791 19 8.12618 18.9892 8.12618 18.9729C8.12618 18.9567 8.16357 18.9459 8.20631 18.9459C8.25171 18.9459 8.28644 18.9323 8.28644 18.9188C8.28644 18.9026 8.32383 18.8917 8.36656 18.8917C8.41197 18.8917 8.44669 18.8782 8.44669 18.8647C8.44669 18.8484 8.47073 18.8376 8.50011 18.8376C8.52949 18.8376 8.55353 18.8241 8.55353 18.8105C8.55353 18.7943 8.57756 18.7835 8.60695 18.7835C8.63633 18.7835 8.66036 18.7699 8.66036 18.7564C8.66036 18.7401 8.68173 18.7293 8.70844 18.7293C8.73515 18.7293 8.77254 18.705 8.79391 18.6752C8.81528 18.6454 8.84733 18.621 8.86602 18.621C8.90876 18.621 9.19455 18.3368 9.19455 18.2935C9.19455 18.2773 9.22927 18.2285 9.27467 18.1879C9.31741 18.1473 9.3548 18.0932 9.3548 18.0688C9.3548 18.0445 9.36816 18.0255 9.38151 18.0255C9.39754 18.0255 9.40822 18.0039 9.40822 17.9768C9.40822 17.9497 9.43226 17.9118 9.46164 17.8902C9.49102 17.8685 9.51506 17.8306 9.51506 17.8036C9.51506 17.7765 9.52841 17.7548 9.54177 17.7548C9.55779 17.7548 9.56847 17.7169 9.56847 17.6736C9.56847 17.6276 9.58183 17.5924 9.59518 17.5924C9.61121 17.5924 9.62189 17.5545 9.62189 17.5112C9.62189 17.4652 9.63525 17.43 9.6486 17.43C9.66463 17.43 9.67531 17.3813 9.67531 17.3217C9.67531 17.2622 9.68867 17.2135 9.70202 17.2135C9.71805 17.2135 9.72873 17.0781 9.72873 16.8616C9.72873 16.645 9.71805 16.5097 9.70202 16.5097C9.68867 16.5097 9.67531 16.461 9.67531 16.4014C9.67531 16.3419 9.66463 16.2931 9.6486 16.2931C9.63525 16.2931 9.62189 16.2552 9.62189 16.2119C9.62189 16.1659 9.61121 16.1307 9.59518 16.1307C9.58183 16.1307 9.56847 16.0928 9.56847 16.0495C9.56847 16.0035 9.55779 15.9683 9.54177 15.9683C9.52841 15.9683 9.51506 15.9439 9.51506 15.9142C9.51506 15.8844 9.50437 15.86 9.48835 15.86C9.47499 15.86 9.46164 15.8384 9.46164 15.8113C9.46164 15.7842 9.4376 15.7463 9.40822 15.7247C9.37884 15.703 9.3548 15.6706 9.3548 15.6516C9.3548 15.6002 8.96485 15.2104 8.9141 15.2104C8.89273 15.2104 8.87404 15.1969 8.87404 15.1833C8.87404 15.1671 8.85 15.1563 8.82062 15.1563C8.79124 15.1563 8.7672 15.1427 8.7672 15.1292C8.7672 15.1129 8.74316 15.1021 8.71378 15.1021C8.6844 15.1021 8.66036 15.0886 8.66036 15.075C8.66036 15.0588 8.63633 15.048 8.60695 15.048C8.57756 15.048 8.55353 15.0344 8.55353 15.0209C8.55353 15.0047 8.52949 14.9938 8.50011 14.9938C8.47073 14.9938 8.44669 14.9803 8.44669 14.9668C8.44669 14.9505 8.41197 14.9397 8.36656 14.9397C8.32383 14.9397 8.28644 14.9262 8.28644 14.9126C8.28644 14.8964 8.2624 14.8856 8.23302 14.8856C8.20364 14.8856 8.1796 14.872 8.1796 14.8585C8.1796 14.8395 9.41623 14.8314 11.8361 14.8314C14.7233 14.8314 15.4952 14.8233 15.5033 14.7989C15.5113 14.7746 15.5273 14.7773 15.5593 14.8098C15.6181 14.8693 15.6154 14.8856 15.5513 14.8856C15.5219 14.8856 15.4979 14.8964 15.4979 14.9126C15.4979 14.9262 15.4739 14.9397 15.4445 14.9397C15.4151 14.9397 15.3911 14.9505 15.3911 14.9668C15.3911 14.9803 15.3564 14.9938 15.3109 14.9938C15.2682 14.9938 15.2308 15.0047 15.2308 15.0209C15.2308 15.0344 15.1961 15.048 15.1507 15.048C15.108 15.048 15.0706 15.0588 15.0706 15.075C15.0706 15.0886 15.0492 15.1021 15.0225 15.1021C14.9958 15.1021 14.9584 15.1265 14.937 15.1563C14.9157 15.186 14.8836 15.2104 14.8649 15.2104C14.8222 15.2104 14.5898 15.4405 14.5898 15.4838C14.5898 15.5 14.5524 15.5487 14.5097 15.5893C14.4643 15.63 14.4295 15.6841 14.4295 15.7085C14.4295 15.7328 14.4189 15.7518 14.4028 15.7518C14.3895 15.7518 14.3761 15.7761 14.3761 15.8059C14.3761 15.8357 14.3654 15.86 14.3494 15.86C14.3361 15.86 14.3227 15.8844 14.3227 15.9142C14.3227 15.9439 14.312 15.9683 14.296 15.9683C14.2826 15.9683 14.2693 15.9927 14.2693 16.0224C14.2693 16.0522 14.2586 16.0766 14.2426 16.0766C14.2292 16.0766 14.2159 16.1009 14.2159 16.1307C14.2159 16.1605 14.2052 16.1849 14.1892 16.1849C14.1758 16.1849 14.1625 16.22 14.1625 16.2661C14.1625 16.3094 14.1518 16.3473 14.1357 16.3473C14.1224 16.3473 14.109 16.396 14.109 16.4555C14.109 16.5151 14.0984 16.5638 14.0823 16.5638C14.0663 16.5638 14.0556 16.691 14.0556 16.8886C14.0556 17.0862 14.0663 17.2135 14.0823 17.2135C14.0984 17.2135 14.109 17.273 14.109 17.3488C14.109 17.4219 14.1224 17.4842 14.1357 17.4842C14.1518 17.4842 14.1625 17.5193 14.1625 17.5654C14.1625 17.6087 14.1758 17.6466 14.1892 17.6466C14.2052 17.6466 14.2159 17.6818 14.2159 17.7278C14.2159 17.7711 14.2292 17.809 14.2426 17.809C14.2586 17.809 14.2693 17.8333 14.2693 17.8631C14.2693 17.8929 14.2826 17.9173 14.296 17.9173C14.312 17.9173 14.3227 17.9416 14.3227 17.9714C14.3227 18.0012 14.3361 18.0255 14.3494 18.0255C14.3654 18.0255 14.3761 18.0445 14.3761 18.0688C14.3761 18.0932 14.4108 18.1473 14.4563 18.1879C14.499 18.2285 14.5364 18.2773 14.5364 18.2935C14.5364 18.3341 14.6592 18.4586 14.6966 18.4586C14.7153 18.4586 14.7741 18.5074 14.8302 18.5669C14.8863 18.6265 14.9504 18.6752 14.9691 18.6752C14.9878 18.6752 15.0225 18.6995 15.0439 18.7293C15.0652 18.7591 15.1026 18.7835 15.1293 18.7835C15.156 18.7835 15.1774 18.7943 15.1774 18.8105C15.1774 18.8241 15.2148 18.8376 15.2575 18.8376C15.3029 18.8376 15.3377 18.8484 15.3377 18.8647C15.3377 18.8782 15.375 18.8917 15.4178 18.8917C15.4632 18.8917 15.4979 18.9026 15.4979 18.9188C15.4979 18.9323 15.546 18.9459 15.6047 18.9459C15.6635 18.9459 15.7116 18.9567 15.7116 18.9729C15.7116 18.9892 15.8638 19 16.1122 19C16.3606 19 16.5129 18.9892 16.5129 18.9729C16.5129 18.9567 16.5743 18.9459 16.6464 18.9459C16.7212 18.9459 16.78 18.9323 16.78 18.9188C16.78 18.9026 16.8173 18.8917 16.8601 18.8917C16.9055 18.8917 16.9402 18.8782 16.9402 18.8647C16.9402 18.8484 16.9642 18.8376 16.9936 18.8376C17.023 18.8376 17.047 18.8241 17.047 18.8105C17.047 18.7943 17.0711 18.7835 17.1005 18.7835C17.1298 18.7835 17.1539 18.7699 17.1539 18.7564C17.1539 18.7401 17.1752 18.7293 17.202 18.7293C17.2287 18.7293 17.2661 18.705 17.2874 18.6752C17.3088 18.6454 17.3408 18.621 17.3595 18.621C17.4023 18.621 17.6881 18.3368 17.6881 18.2935C17.6881 18.2773 17.7361 18.2177 17.7949 18.1609C17.8537 18.104 17.9017 18.0364 17.9017 18.0147C17.9017 17.9903 17.9151 17.9714 17.9284 17.9714C17.9445 17.9714 17.9552 17.947 17.9552 17.9173C17.9552 17.8875 17.9685 17.8631 17.9819 17.8631C17.9979 17.8631 18.0086 17.8388 18.0086 17.809C18.0086 17.7792 18.0219 17.7548 18.0353 17.7548C18.0513 17.7548 18.062 17.7169 18.062 17.6736C18.062 17.6276 18.0753 17.5924 18.0887 17.5924C18.1047 17.5924 18.1154 17.5545 18.1154 17.5112C18.1154 17.4652 18.1288 17.43 18.1421 17.43C18.1581 17.43 18.1688 17.3569 18.1688 17.2676C18.1688 17.1783 18.1795 17.1052 18.1955 17.1052C18.2116 17.1052 18.2222 16.9969 18.2222 16.8345C18.2222 16.6721 18.2116 16.5638 18.1955 16.5638C18.1822 16.5638 18.1688 16.5016 18.1688 16.4285C18.1688 16.3527 18.1581 16.2931 18.1421 16.2931C18.1288 16.2931 18.1154 16.2552 18.1154 16.2119C18.1154 16.1659 18.1047 16.1307 18.0887 16.1307C18.0753 16.1307 18.062 16.1064 18.062 16.0766C18.062 16.0468 18.0513 16.0224 18.0353 16.0224C18.0219 16.0224 18.0086 15.9981 18.0086 15.9683C18.0086 15.9385 17.9979 15.9142 17.9819 15.9142C17.9685 15.9142 17.9552 15.8925 17.9552 15.8654C17.9552 15.8384 17.9311 15.8005 17.9017 15.7788C17.8724 15.7572 17.8483 15.7247 17.8483 15.7057C17.8483 15.6543 17.4049 15.2104 17.3542 15.2104C17.3328 15.2104 17.3141 15.1969 17.3141 15.1833C17.3141 15.1671 17.2901 15.1563 17.2607 15.1563C17.2313 15.1563 17.2073 15.1427 17.2073 15.1292C17.2073 15.1129 17.1859 15.1021 17.1592 15.1021C17.1325 15.1021 17.0951 15.0778 17.0738 15.048C17.0524 15.0155 17.0043 14.9938 16.9616 14.9938C16.9215 14.9938 16.8868 14.9803 16.8868 14.9668C16.8868 14.9505 16.8387 14.9397 16.78 14.9397C16.7212 14.9397 16.6731 14.9262 16.6731 14.9126C16.6731 14.8964 16.6491 14.8856 16.6197 14.8856C16.585 14.8856 16.5663 14.8666 16.5663 14.8314C16.5663 14.7827 16.585 14.7773 16.7532 14.7773C16.8601 14.7773 16.9402 14.7881 16.9402 14.8044C16.9402 14.8206 17.1218 14.8314 17.4343 14.8314H17.9311L18.0219 14.7367C18.2116 14.5472 18.0994 14.1276 17.8617 14.1276C17.8243 14.1276 17.7949 14.1385 17.7949 14.1547C17.7949 14.171 17.6881 14.1818 17.5278 14.1818C17.3676 14.1818 17.2607 14.171 17.2607 14.1547C17.2607 14.1385 17.1192 14.1276 16.8868 14.1276C16.6544 14.1276 16.5129 14.1385 16.5129 14.1547C16.5129 14.1737 15.3991 14.1818 13.2276 14.1818C11.0562 14.1818 9.9424 14.1737 9.9424 14.1547C9.9424 14.1168 9.84358 14.1222 9.82488 14.1601C9.81153 14.1872 9.80619 14.1872 9.79283 14.1601C9.77414 14.1168 9.62991 14.1168 9.61121 14.1601C9.59786 14.1872 9.59251 14.1872 9.57916 14.1601C9.56046 14.1222 9.3548 14.1141 9.3548 14.1547C9.3548 14.171 9.0797 14.1818 8.58024 14.1818C8.08077 14.1818 7.80567 14.171 7.80567 14.1547C7.80567 14.1141 7.65343 14.1222 7.63473 14.1601C7.62138 14.1872 7.61603 14.1872 7.60268 14.1601C7.59467 14.1439 7.54125 14.1276 7.48249 14.1276C7.4264 14.1276 7.37832 14.1141 7.37832 14.1006C7.37832 14.0843 7.3436 14.0735 7.2982 14.0735C7.25546 14.0735 7.21807 14.06 7.21807 14.0464C7.21807 14.0302 7.19403 14.0194 7.16465 14.0194C7.13527 14.0194 7.11123 14.0058 7.11123 13.9923C7.11123 13.9761 7.08719 13.9652 7.05781 13.9652C7.02843 13.9652 7.0044 13.9517 7.0044 13.9382C7.0044 13.9219 6.9857 13.9111 6.96433 13.9111C6.91358 13.9111 6.57705 13.5754 6.57705 13.524C6.57705 13.5051 6.55301 13.4726 6.52363 13.4509C6.49425 13.4293 6.47021 13.3914 6.47021 13.3643C6.47021 13.3372 6.45953 13.3156 6.4435 13.3156C6.43015 13.3156 6.41679 13.2912 6.41679 13.2614C6.41679 13.2317 6.40611 13.2073 6.39008 13.2073C6.37673 13.2073 6.36337 13.1829 6.36337 13.1532C6.36337 13.1234 6.35269 13.099 6.33667 13.099C6.32331 13.099 6.30996 13.0503 6.30996 12.9908C6.30996 12.9312 6.29927 12.8825 6.28325 12.8825C6.26989 12.8825 6.25654 12.8338 6.25654 12.7742C6.25654 12.7147 6.24585 12.6659 6.22983 12.6659C6.21647 12.6659 6.20312 12.6037 6.20312 12.5306C6.20312 12.4548 6.19244 12.3952 6.17641 12.3952C6.16039 12.3952 6.1497 12.3222 6.1497 12.2328C6.1497 12.1435 6.13902 12.0704 6.12299 12.0704C6.10964 12.0704 6.09628 12.0217 6.09628 11.9621C6.09628 11.9026 6.0856 11.8539 6.06957 11.8539C6.05355 11.8539 6.04286 11.7808 6.04286 11.6915C6.04286 11.6021 6.03218 11.529 6.01616 11.529C6.0028 11.529 5.98945 11.4803 5.98945 11.4208C5.98945 11.3612 5.97876 11.3125 5.96274 11.3125C5.94671 11.3125 5.93603 11.2394 5.93603 11.1501V10.9877H6.33667C6.58506 10.9877 6.7373 10.9768 6.7373 10.9606C6.7373 10.9444 7.06583 10.9335 7.67212 10.9335C8.27842 10.9335 8.60695 10.9444 8.60695 10.9606C8.60695 10.9985 8.70577 10.9931 8.72447 10.9525C8.73782 10.9281 8.74316 10.9281 8.75652 10.9525C8.77521 10.9958 9.30138 11.0012 9.30138 10.9606C9.30138 10.9444 9.38952 10.9335 9.51506 10.9335C9.64059 10.9335 9.72873 10.9444 9.72873 10.9606C9.72873 10.9796 10.5914 10.9877 12.2661 10.9877C13.9408 10.9877 14.8035 10.9796 14.8035 10.9606C14.8035 10.9444 14.9183 10.9335 15.0973 10.9335C15.2762 10.9335 15.3911 10.9444 15.3911 10.9606C15.3911 10.9768 15.4792 10.9877 15.6047 10.9877C15.7303 10.9877 15.8184 10.9768 15.8184 10.9606C15.8184 10.9444 16.1042 10.9335 16.6197 10.9335C17.1352 10.9335 17.421 10.9444 17.421 10.9606C17.421 10.9768 17.5812 10.9877 17.8483 10.9877C18.1154 10.9877 18.2757 10.9768 18.2757 10.9606C18.2757 10.9444 18.4065 10.9335 18.6122 10.9335C18.9594 10.9335 19.0235 10.9146 19.0235 10.8144C19.0235 10.7901 19.0369 10.7711 19.0502 10.7711C19.0663 10.7711 19.0769 10.7468 19.0769 10.717C19.0769 10.6872 19.0903 10.6629 19.1036 10.6629C19.1197 10.6629 19.1304 10.6006 19.1304 10.5275C19.1304 10.4517 19.1437 10.3922 19.1571 10.3922C19.1731 10.3922 19.1838 10.3191 19.1838 10.2298C19.1838 10.1404 19.1945 10.0673 19.2105 10.0673C19.2265 10.0673 19.2372 10.0294 19.2372 9.98614C19.2372 9.94012 19.2505 9.90493 19.2639 9.90493C19.2799 9.90493 19.2906 9.85621 19.2906 9.79666C19.2906 9.7371 19.304 9.68838 19.3173 9.68838C19.3333 9.68838 19.344 9.65048 19.344 9.60717C19.344 9.56116 19.3574 9.52597 19.3707 9.52597C19.3868 9.52597 19.3974 9.47725 19.3974 9.41769C19.3974 9.35814 19.4108 9.30942 19.4242 9.30942C19.4402 9.30942 19.4509 9.2607 19.4509 9.20115C19.4509 9.14159 19.4642 9.09287 19.4776 9.09287C19.4936 9.09287 19.5043 9.04415 19.5043 8.9846C19.5043 8.92504 19.5176 8.87632 19.531 8.87632C19.547 8.87632 19.5577 8.8276 19.5577 8.76805C19.5577 8.7085 19.5711 8.65977 19.5844 8.65977C19.6004 8.65977 19.6111 8.61105 19.6111 8.5515C19.6111 8.49195 19.6245 8.44322 19.6378 8.44322C19.6539 8.44322 19.6645 8.3945 19.6645 8.33495C19.6645 8.2754 19.6779 8.22667 19.6912 8.22667C19.7073 8.22667 19.718 8.18878 19.718 8.14547C19.718 8.09945 19.7313 8.06426 19.7447 8.06426C19.7607 8.06426 19.7714 8.01554 19.7714 7.95599C19.7714 7.89644 19.7847 7.84771 19.7981 7.84771C19.8141 7.84771 19.8248 7.79899 19.8248 7.73944C19.8248 7.67989 19.8382 7.63116 19.8515 7.63116C19.8675 7.63116 19.8782 7.58244 19.8782 7.52289C19.8782 7.46334 19.8916 7.41461 19.9049 7.41461C19.9209 7.41461 19.9316 7.36589 19.9316 7.30634C19.9316 7.24679 19.945 7.19806 19.9583 7.19806C19.9744 7.19806 19.9851 7.14934 19.9851 7.08979C19.9851 7.03024 19.9984 6.98151 20.0118 6.98151C20.0278 6.98151 20.0385 6.91926 20.0385 6.84617C20.0385 6.77038 20.0518 6.71083 20.0652 6.71083C20.0812 6.71083 20.0919 6.67293 20.0919 6.62962C20.0919 6.58361 20.1052 6.54842 20.1186 6.54842C20.1346 6.54842 20.1453 6.49969 20.1453 6.44014C20.1453 6.38059 20.1587 6.33187 20.172 6.33187C20.188 6.33187 20.1987 6.29397 20.1987 6.25066C20.1987 6.20464 20.2121 6.16946 20.2254 6.16946C20.2415 6.16946 20.2521 6.1072 20.2521 6.03411C20.2521 5.95832 20.2655 5.89877 20.2789 5.89877C20.2949 5.89877 20.3056 5.85005 20.3056 5.79049C20.3056 5.73094 20.3189 5.68222 20.3323 5.68222C20.3483 5.68222 20.359 5.6335 20.359 5.57395C20.359 5.51439 20.3723 5.46567 20.3857 5.46567C20.4017 5.46567 20.4124 5.41695 20.4124 5.3574C20.4124 5.29784 20.4258 5.24912 20.4391 5.24912C20.4551 5.24912 20.4658 5.2004 20.4658 5.14085C20.4658 5.0813 20.4792 5.03257 20.4925 5.03257C20.5086 5.03257 20.5192 4.98385 20.5192 4.9243C20.5192 4.86475 20.5326 4.81602 20.5459 4.81602C20.562 4.81602 20.5727 4.77813 20.5727 4.73482C20.5727 4.6888 20.586 4.65361 20.5994 4.65361C20.6154 4.65361 20.6261 4.60489 20.6261 4.54534C20.6261 4.48578 20.6394 4.43706 20.6528 4.43706C20.6688 4.43706 20.6795 4.3748 20.6795 4.30172C20.6795 4.22593 20.6928 4.16637 20.7062 4.16637C20.7222 4.16637 20.7329 4.11765 20.7329 4.0581C20.7329 3.99855 20.7463 3.94983 20.7596 3.94983C20.7756 3.94983 20.7863 3.9011 20.7863 3.84155C20.7863 3.782 20.7997 3.73328 20.813 3.73328C20.8291 3.73328 20.8397 3.68455 20.8397 3.625C20.8397 3.56545 20.8531 3.51673 20.8665 3.51673C20.8825 3.51673 20.8932 3.468 20.8932 3.40845C20.8932 3.3489 20.9065 3.30018 20.9199 3.30018C20.9359 3.30018 20.9466 3.26228 20.9466 3.21897C20.9466 3.17295 20.9599 3.13776 20.9733 3.13776C20.9893 3.13776 21 3.1134 21 3.08363C21 3.05385 20.9893 3.02949 20.9733 3.02949C20.9599 3.02949 20.9466 3.01054 20.9466 2.98889C20.9466 2.91039 20.821 2.81294 20.7196 2.81294C20.6688 2.81294 20.6261 2.79941 20.6261 2.78587C20.6261 2.76693 17.8697 2.7588 12.4103 2.7588C5.32706 2.7588 4.19192 2.75339 4.1572 2.72091C4.13583 2.69925 4.1198 2.62887 4.1198 2.5585C4.1198 2.49082 4.10912 2.43398 4.0931 2.43398C4.07707 2.43398 4.06639 2.36089 4.06639 2.27157C4.06639 2.18224 4.0557 2.10916 4.03968 2.10916C4.02632 2.10916 4.01297 2.0469 4.01297 1.97381C4.01297 1.89802 4.00228 1.83847 3.98626 1.83847C3.97023 1.83847 3.95955 1.76538 3.95955 1.67606C3.95955 1.58673 3.94887 1.51365 3.93284 1.51365C3.91949 1.51365 3.90613 1.46492 3.90613 1.40537C3.90613 1.34582 3.89545 1.2971 3.87942 1.2971C3.86607 1.2971 3.85271 1.24837 3.85271 1.18882C3.85271 1.12927 3.84203 1.08055 3.826 1.08055C3.81265 1.08055 3.79929 1.05618 3.79929 1.02641C3.79929 0.996634 3.78861 0.972273 3.77259 0.972273C3.75923 0.972273 3.74588 0.937084 3.74588 0.896481C3.74588 0.853171 3.72451 0.804446 3.69246 0.782791C3.66308 0.761136 3.63904 0.728655 3.63904 0.709707C3.63904 0.663691 3.35592 0.376762 3.31052 0.376762C3.29182 0.376762 3.25977 0.3524 3.2384 0.322624C3.21703 0.292849 3.17964 0.268488 3.15293 0.268488C3.12622 0.268488 3.10486 0.254953 3.10486 0.241419C3.10486 0.225178 3.08082 0.21435 3.05144 0.21435C3.02206 0.21435 2.99802 0.200815 2.99802 0.187281C2.99802 0.171039 2.97398 0.160213 2.9446 0.160213C2.91522 0.160213 2.89118 0.146679 2.89118 0.133144C2.89118 0.116903 2.85646 0.106075 2.81105 0.106075C2.76832 0.106075 2.73093 0.0925405 2.73093 0.0790062C2.73093 0.062765 2.68285 0.0519371 2.62409 0.0519371C2.56533 0.0519371 2.51725 0.0384042 2.51725 0.0248699C2.51725 0.00592186 2.11127 -0.00219951 1.35006 0.000507355H0.180202L0.0947326 0.0925407ZM12.0257 3.43552C12.0257 3.44905 12.0498 3.46259 12.0791 3.46259C12.1085 3.46259 12.1326 3.44905 12.1326 3.43552C12.1326 3.41657 13.476 3.40845 16.1122 3.40845C18.7484 3.40845 20.0919 3.41657 20.0919 3.43552C20.0919 3.44905 20.1159 3.46259 20.1453 3.46259C20.1907 3.46259 20.1987 3.48154 20.1987 3.57086C20.1987 3.63041 20.188 3.67914 20.172 3.67914C20.1587 3.67914 20.1453 3.72786 20.1453 3.78741C20.1453 3.84696 20.1346 3.89569 20.1186 3.89569C20.1052 3.89569 20.0919 3.93088 20.0919 3.97689C20.0919 4.0202 20.0812 4.0581 20.0652 4.0581C20.0518 4.0581 20.0385 4.10682 20.0385 4.16637C20.0385 4.22593 20.0278 4.27465 20.0118 4.27465C19.9984 4.27465 19.9851 4.32337 19.9851 4.38292C19.9851 4.44247 19.9744 4.4912 19.9583 4.4912C19.945 4.4912 19.9316 4.53992 19.9316 4.59947C19.9316 4.65902 19.9209 4.70775 19.9049 4.70775C19.8916 4.70775 19.8782 4.75647 19.8782 4.81602C19.8782 4.87557 19.8675 4.9243 19.8515 4.9243C19.8382 4.9243 19.8248 4.97302 19.8248 5.03257C19.8248 5.09212 19.8141 5.14085 19.7981 5.14085C19.7847 5.14085 19.7714 5.2004 19.7714 5.27619C19.7714 5.34927 19.7607 5.41153 19.7447 5.41153C19.7313 5.41153 19.718 5.46026 19.718 5.51981C19.718 5.57936 19.7073 5.62808 19.6912 5.62808C19.6779 5.62808 19.6645 5.67681 19.6645 5.73636C19.6645 5.79591 19.6539 5.84463 19.6378 5.84463C19.6245 5.84463 19.6111 5.89335 19.6111 5.95291C19.6111 6.01246 19.6004 6.06118 19.5844 6.06118C19.5711 6.06118 19.5577 6.1099 19.5577 6.16946C19.5577 6.22901 19.547 6.27773 19.531 6.27773C19.5176 6.27773 19.5043 6.32645 19.5043 6.386C19.5043 6.44556 19.4936 6.49428 19.4776 6.49428C19.4642 6.49428 19.4509 6.543 19.4509 6.60255C19.4509 6.6621 19.4402 6.71083 19.4242 6.71083C19.4108 6.71083 19.3974 6.77038 19.3974 6.84617C19.3974 6.91926 19.3868 6.98151 19.3707 6.98151C19.3574 6.98151 19.344 7.03024 19.344 7.08979C19.344 7.14934 19.3333 7.19806 19.3173 7.19806C19.304 7.19806 19.2906 7.24679 19.2906 7.30634C19.2906 7.36589 19.2799 7.41461 19.2639 7.41461C19.2505 7.41461 19.2372 7.46334 19.2372 7.52289C19.2372 7.58244 19.2265 7.63116 19.2105 7.63116C19.1971 7.63116 19.1838 7.67989 19.1838 7.73944C19.1838 7.79899 19.1731 7.84771 19.1571 7.84771C19.1437 7.84771 19.1304 7.89644 19.1304 7.95599C19.1304 8.01554 19.1197 8.06426 19.1036 8.06426C19.0903 8.06426 19.0769 8.09945 19.0769 8.14547C19.0769 8.18878 19.0663 8.22667 19.0502 8.22667C19.0369 8.22667 19.0235 8.2754 19.0235 8.33495C19.0235 8.3945 19.0128 8.44322 18.9968 8.44322C18.9835 8.44322 18.9701 8.49195 18.9701 8.5515C18.9701 8.61105 18.9594 8.65977 18.9434 8.65977C18.93 8.65977 18.9167 8.7085 18.9167 8.76805C18.9167 8.8276 18.906 8.87632 18.89 8.87632C18.8766 8.87632 18.8633 8.92504 18.8633 8.9846C18.8633 9.04415 18.8526 9.09287 18.8366 9.09287C18.8232 9.09287 18.8098 9.14159 18.8098 9.20115C18.8098 9.2607 18.7992 9.30942 18.7831 9.30942C18.7698 9.30942 18.7564 9.34461 18.7564 9.39063C18.7564 9.43394 18.7457 9.47183 18.7297 9.47183C18.7164 9.47183 18.703 9.52056 18.703 9.58011C18.703 9.63966 18.6923 9.68838 18.6763 9.68838C18.6629 9.68838 18.6496 9.7371 18.6496 9.79666C18.6496 9.85621 18.6389 9.90493 18.6229 9.90493C18.6095 9.90493 18.5962 9.95365 18.5962 10.0132C18.5962 10.0728 18.5855 10.1215 18.5695 10.1215C18.5561 10.1215 18.5428 10.1404 18.5428 10.1648C18.5428 10.2893 18.882 10.2839 12.1593 10.2839C5.29768 10.2839 5.77577 10.2947 5.77577 10.1377C5.77577 10.0998 5.76509 10.0673 5.74906 10.0673C5.73571 10.0673 5.72235 10.0051 5.72235 9.932C5.72235 9.85621 5.71167 9.79666 5.69565 9.79666C5.68229 9.79666 5.66894 9.74793 5.66894 9.68838C5.66894 9.62883 5.65825 9.58011 5.64223 9.58011C5.62887 9.58011 5.61552 9.51785 5.61552 9.44476C5.61552 9.36897 5.60483 9.30942 5.58881 9.30942C5.57545 9.30942 5.5621 9.2607 5.5621 9.20115C5.5621 9.14159 5.55142 9.09287 5.53539 9.09287C5.52204 9.09287 5.50868 9.05497 5.50868 9.01166C5.50868 8.96565 5.498 8.93046 5.48197 8.93046C5.46862 8.93046 5.45526 8.89527 5.45526 8.85196C5.45526 8.80865 5.43924 8.76534 5.42321 8.75993C5.3965 8.7491 5.39917 8.73827 5.42855 8.71391C5.45793 8.68955 5.4606 8.67872 5.43657 8.66789C5.41253 8.65977 5.40184 8.59751 5.40184 8.49465C5.40184 8.40533 5.39116 8.33495 5.37514 8.33495C5.36178 8.33495 5.34843 8.28622 5.34843 8.22667C5.34843 8.16712 5.33774 8.1184 5.32172 8.1184C5.30836 8.1184 5.29501 8.05614 5.29501 7.98306C5.29501 7.90726 5.28432 7.84771 5.2683 7.84771C5.25494 7.84771 5.24159 7.78545 5.24159 7.71237C5.24159 7.63658 5.23091 7.57703 5.21488 7.57703C5.20153 7.57703 5.18817 7.5283 5.18817 7.46875C5.18817 7.4092 5.17749 7.36048 5.16146 7.36048C5.14811 7.36048 5.13475 7.29822 5.13475 7.22513C5.13475 7.14934 5.12407 7.08979 5.10804 7.08979C5.09469 7.08979 5.08133 7.04107 5.08133 6.98151C5.08133 6.92196 5.07065 6.87324 5.05463 6.87324C5.04127 6.87324 5.02792 6.82452 5.02792 6.76497C5.02792 6.70541 5.01723 6.65669 5.00121 6.65669C4.98785 6.65669 4.9745 6.59443 4.9745 6.52135C4.9745 6.44556 4.96381 6.386 4.94779 6.386C4.93443 6.386 4.92108 6.33728 4.92108 6.27773C4.92108 6.21818 4.9104 6.16946 4.89437 6.16946C4.88102 6.16946 4.86766 6.1072 4.86766 6.03411C4.86766 5.95832 4.85698 5.89877 4.84095 5.89877C4.8276 5.89877 4.81424 5.83651 4.81424 5.76342C4.81424 5.68763 4.80356 5.62808 4.78753 5.62808C4.77418 5.62808 4.76082 5.57936 4.76082 5.51981C4.76082 5.46026 4.75014 5.41153 4.73412 5.41153C4.72076 5.41153 4.70741 5.36281 4.70741 5.30326C4.70741 5.24371 4.69672 5.19498 4.6807 5.19498C4.66734 5.19498 4.65399 5.14626 4.65399 5.08671C4.65399 5.02716 4.6433 4.97843 4.62728 4.97843C4.61392 4.97843 4.60057 4.91618 4.60057 4.84309C4.60057 4.7673 4.58989 4.70775 4.57386 4.70775C4.56051 4.70775 4.54715 4.65902 4.54715 4.59947C4.54715 4.53992 4.53647 4.4912 4.52044 4.4912C4.50709 4.4912 4.49373 4.42894 4.49373 4.35585C4.49373 4.28006 4.48305 4.22051 4.46702 4.22051C4.45367 4.22051 4.44031 4.17179 4.44031 4.11224C4.44031 4.05269 4.42963 4.00396 4.41361 4.00396C4.40025 4.00396 4.3869 3.95524 4.3869 3.89569C4.3869 3.83614 4.37621 3.78741 4.36019 3.78741C4.32279 3.78741 4.32814 3.49507 4.3682 3.44905C4.40826 3.40033 12.0257 3.3868 12.0257 3.43552ZM7.85909 15.454C7.85909 15.4675 7.90717 15.4811 7.96593 15.4811C8.02469 15.4811 8.07276 15.4919 8.07276 15.5081C8.07276 15.5217 8.11015 15.5352 8.15289 15.5352C8.19829 15.5352 8.23302 15.546 8.23302 15.5623C8.23302 15.5758 8.25706 15.5893 8.28644 15.5893C8.31582 15.5893 8.33985 15.6002 8.33985 15.6164C8.33985 15.63 8.36122 15.6435 8.38793 15.6435C8.41464 15.6435 8.45203 15.6678 8.4734 15.6976C8.49477 15.7274 8.52682 15.7518 8.54551 15.7518C8.56688 15.7518 8.64701 15.8194 8.72714 15.9006C8.80726 15.9818 8.87404 16.0631 8.87404 16.0847C8.87404 16.1037 8.89807 16.1361 8.92745 16.1578C8.95684 16.1794 8.98087 16.2173 8.98087 16.2444C8.98087 16.2715 8.99423 16.2931 9.00758 16.2931C9.02361 16.2931 9.03429 16.3283 9.03429 16.3743C9.03429 16.4176 9.04765 16.4555 9.061 16.4555C9.07703 16.4555 9.08771 16.6098 9.08771 16.8616C9.08771 17.1133 9.07703 17.2676 9.061 17.2676C9.04765 17.2676 9.03429 17.3028 9.03429 17.3488C9.03429 17.3921 9.02361 17.43 9.00758 17.43C8.99423 17.43 8.98087 17.4544 8.98087 17.4842C8.98087 17.5139 8.97019 17.5383 8.95416 17.5383C8.94081 17.5383 8.92745 17.5599 8.92745 17.587C8.92745 17.6141 8.90342 17.652 8.87404 17.6736C8.84466 17.6953 8.82062 17.7278 8.82062 17.7467C8.82062 17.7927 8.48408 18.1338 8.43868 18.1338C8.41998 18.1338 8.38793 18.1582 8.36656 18.1879C8.3452 18.2204 8.29712 18.2421 8.25438 18.2421C8.21432 18.2421 8.1796 18.2529 8.1796 18.2691C8.1796 18.2827 8.14488 18.2962 8.09947 18.2962C8.05674 18.2962 8.01934 18.307 8.01934 18.3233C8.01934 18.3395 7.8858 18.3504 7.67212 18.3504C7.45845 18.3504 7.3249 18.3395 7.3249 18.3233C7.3249 18.307 7.29018 18.2962 7.24478 18.2962C7.20204 18.2962 7.16465 18.2827 7.16465 18.2691C7.16465 18.2529 7.12993 18.2421 7.08452 18.2421C7.04179 18.2421 7.0044 18.2285 7.0044 18.215C7.0044 18.1988 6.98303 18.1879 6.95632 18.1879C6.92961 18.1879 6.89222 18.1636 6.87085 18.1338C6.84948 18.104 6.81743 18.0797 6.79606 18.0797C6.75333 18.0797 6.63047 17.9579 6.63047 17.9145C6.63047 17.8983 6.59574 17.8496 6.55034 17.809C6.5076 17.7684 6.47021 17.7169 6.47021 17.6953C6.47021 17.6763 6.44617 17.6412 6.41679 17.6195C6.38741 17.5978 6.36337 17.5599 6.36337 17.5329C6.36337 17.5058 6.35269 17.4842 6.33667 17.4842C6.32331 17.4842 6.30996 17.4354 6.30996 17.3759C6.30996 17.3163 6.29927 17.2676 6.28325 17.2676C6.26722 17.2676 6.25654 17.1972 6.25654 17.1079C6.25654 17.005 6.24318 16.9428 6.22449 16.932C6.19778 16.9184 6.19778 16.913 6.22449 16.8995C6.24318 16.8886 6.25654 16.8264 6.25654 16.7235C6.25654 16.6342 6.26722 16.5638 6.28325 16.5638C6.29927 16.5638 6.30996 16.5151 6.30996 16.4555C6.30996 16.396 6.32331 16.3473 6.33667 16.3473C6.35269 16.3473 6.36337 16.3229 6.36337 16.2931C6.36337 16.2634 6.37673 16.239 6.39008 16.239C6.40611 16.239 6.41679 16.2173 6.41679 16.1903C6.41679 16.1632 6.44083 16.1253 6.47021 16.1037C6.49959 16.082 6.52363 16.0495 6.52363 16.0306C6.52363 16.0089 6.57705 15.9385 6.64382 15.8736C6.70792 15.8059 6.77737 15.7518 6.79873 15.7518C6.81743 15.7518 6.84948 15.7274 6.87085 15.6976C6.89222 15.6678 6.92961 15.6435 6.95632 15.6435C6.98303 15.6435 7.0044 15.63 7.0044 15.6164C7.0044 15.6002 7.02843 15.5893 7.05781 15.5893C7.08719 15.5893 7.11123 15.5758 7.11123 15.5623C7.11123 15.546 7.14862 15.5352 7.19136 15.5352C7.23676 15.5352 7.27149 15.5217 7.27149 15.5081C7.27149 15.4919 7.33292 15.4811 7.40503 15.4811C7.47982 15.4811 7.53858 15.4675 7.53858 15.454C7.53858 15.4378 7.61069 15.4269 7.69883 15.4269C7.78697 15.4269 7.85909 15.4378 7.85909 15.454ZM16.5129 15.5081C16.5129 15.5217 16.5503 15.5352 16.593 15.5352C16.6384 15.5352 16.6731 15.546 16.6731 15.5623C16.6731 15.5758 16.6972 15.5893 16.7265 15.5893C16.7559 15.5893 16.78 15.6002 16.78 15.6164C16.78 15.63 16.804 15.6435 16.8334 15.6435C16.8628 15.6435 16.8868 15.6543 16.8868 15.6706C16.8868 15.6841 16.9082 15.6976 16.9349 15.6976C16.9616 15.6976 16.999 15.722 17.0203 15.7518C17.0417 15.7815 17.0738 15.8059 17.0951 15.8059C17.1405 15.8059 17.2607 15.9277 17.2607 15.9737C17.2607 15.9954 17.2848 16.0279 17.3141 16.0495C17.3435 16.0712 17.3676 16.1091 17.3676 16.1361C17.3676 16.1632 17.3809 16.1849 17.3943 16.1849C17.4103 16.1849 17.421 16.2092 17.421 16.239C17.421 16.2688 17.4343 16.2931 17.4477 16.2931C17.4637 16.2931 17.4744 16.3175 17.4744 16.3473C17.4744 16.377 17.4877 16.4014 17.5011 16.4014C17.5171 16.4014 17.5278 16.4501 17.5278 16.5097C17.5278 16.5692 17.5412 16.618 17.5545 16.618C17.5705 16.618 17.5812 16.7181 17.5812 16.8616C17.5812 17.005 17.5705 17.1052 17.5545 17.1052C17.5412 17.1052 17.5278 17.1647 17.5278 17.2405C17.5278 17.3136 17.5171 17.3759 17.5011 17.3759C17.4877 17.3759 17.4744 17.4002 17.4744 17.43C17.4744 17.4598 17.4637 17.4842 17.4477 17.4842C17.4343 17.4842 17.421 17.5166 17.421 17.5545C17.421 17.5978 17.3889 17.6547 17.3408 17.7007C17.2981 17.7413 17.2607 17.79 17.2607 17.8063C17.2607 17.8496 16.9749 18.1338 16.9322 18.1338C16.9135 18.1338 16.8814 18.1582 16.8601 18.1879C16.8387 18.2204 16.7906 18.2421 16.7479 18.2421C16.7078 18.2421 16.6731 18.2529 16.6731 18.2691C16.6731 18.2827 16.6384 18.2962 16.593 18.2962C16.5503 18.2962 16.5129 18.307 16.5129 18.3233C16.5129 18.3395 16.3713 18.3504 16.1389 18.3504C15.9066 18.3504 15.765 18.3395 15.765 18.3233C15.765 18.307 15.7303 18.2962 15.6849 18.2962C15.6421 18.2962 15.6047 18.2827 15.6047 18.2691C15.6047 18.2529 15.5807 18.2421 15.5513 18.2421C15.5219 18.2421 15.4979 18.2285 15.4979 18.215C15.4979 18.1988 15.4765 18.1879 15.4498 18.1879C15.4231 18.1879 15.3857 18.1636 15.3644 18.1338C15.343 18.104 15.3109 18.0797 15.2923 18.0797C15.2468 18.0797 15.0171 17.8469 15.0171 17.8009C15.0171 17.7819 14.9931 17.7494 14.9637 17.7278C14.9343 17.7061 14.9103 17.6682 14.9103 17.6412C14.9103 17.6141 14.8996 17.5924 14.8836 17.5924C14.8702 17.5924 14.8569 17.5681 14.8569 17.5383C14.8569 17.5085 14.8462 17.4842 14.8302 17.4842C14.8168 17.4842 14.8035 17.4463 14.8035 17.4029C14.8035 17.3569 14.7928 17.3217 14.7768 17.3217C14.7634 17.3217 14.7501 17.2595 14.7501 17.1864C14.7501 17.1106 14.7394 17.0511 14.7233 17.0511C14.71 17.0511 14.6966 16.9888 14.6966 16.9157C14.6966 16.8399 14.71 16.7804 14.7233 16.7804C14.7394 16.7804 14.7501 16.7181 14.7501 16.645C14.7501 16.5692 14.7634 16.5097 14.7768 16.5097C14.7928 16.5097 14.8035 16.4718 14.8035 16.4285C14.8035 16.3825 14.8168 16.3473 14.8302 16.3473C14.8462 16.3473 14.8569 16.3229 14.8569 16.2931C14.8569 16.2634 14.8702 16.239 14.8836 16.239C14.8996 16.239 14.9103 16.22 14.9103 16.1957C14.9103 16.1713 14.9477 16.1172 14.9904 16.0766C15.0358 16.036 15.0706 15.9873 15.0706 15.971C15.0706 15.9277 15.2468 15.7518 15.2896 15.7518C15.3109 15.7518 15.343 15.7274 15.3644 15.6976C15.3857 15.6678 15.4231 15.6435 15.4498 15.6435C15.4765 15.6435 15.4979 15.63 15.4979 15.6164C15.4979 15.6002 15.5219 15.5893 15.5513 15.5893C15.5807 15.5893 15.6047 15.5758 15.6047 15.5623C15.6047 15.546 15.6528 15.5352 15.7116 15.5352C15.7703 15.5352 15.8184 15.5217 15.8184 15.5081C15.8184 15.4919 15.952 15.4811 16.1656 15.4811C16.3793 15.4811 16.5129 15.4919 16.5129 15.5081Z" fill="#273673"/>
</svg>
